<svg id="eSEXARhylH41" xmlns="http://www.w3.org/2000/svg" xmlns:xlink="http://www.w3.org/1999/xlink" viewBox="0 0 1854 1854" shape-rendering="geometricPrecision" text-rendering="geometricPrecision"><g transform="matrix(.999998 0 0 0.999997 0.001854 0.002781)" clip-rule="evenodd"><path d="M927,0c512,0,927,415,927,927s-415,927-927,927-927-415-927-927s415-927,927-927Z" clip-rule="evenodd" fill="#005d9c" fill-rule="evenodd"/><path d="M927,19c501,0,908,407,908,908s-407,908-908,908-908-407-908-908s407-908,908-908Z" clip-rule="evenodd" fill="#fefefe" fill-rule="evenodd"/><path d="M927,38c491,0,889,398,889,889s-398,889-889,889-889-398-889-889s398-889,889-889Z" clip-rule="evenodd" fill="#005d9c" fill-rule="evenodd"/><path d="M642,183l13,34c3,8,7,8,9,8s4-1,4-1v1c-5,8-12,9-15,9-4,0-6-1-6-1-4,7-12,10-17,10-3,0-4-1-4-1v-1c7-3,6-10,4-13c0-2-28-67-30-74-3-6-7-7-10-7-2,0-5,1-5,1v0c0,0,2-4,7-7c5-4,12-4,17-3c0,0,2-3,7-7c4-3,12-4,17-2v0c0,0-2,1-4,3s-4,6-2,11c2,4,10,27,10,27s3-1,5-6c2-4,3-10,3-13s1-14,3-19c1-6,4-12,10-16c6-3,13-2,16-1c4,2,8,5,9,11c1,4,0,9-1,10c0,0-2-2-5-2-4,0-7,1-9,4-3,4-5,9-7,13-1,5-2,8-5,12-3,5-5,7-5,7s5-1,10-1c6,0,14,1,19,4c4,2,8,5,12,12c5,7,8,13,10,17c3,4,7,9,13,7v1c0,0-2,2-5,4-3,3-6,4-10,4s-7-2-7-2-1,2-4,5c-2,2-5,3-7,3s-5-1-6-2v0c0,0,3-2,3-6c0-3-1-5-3-7-1-3-5-10-8-15-3-6-11-12-19-12-3,0-7,1-7,1Z" clip-rule="evenodd" fill="#fefefe"/><path d="M696,109c0,0,5-1,8,1c4,2,5,5,5,7c1,2,20,75,21,77c1,4,1,11-7,13v1c0,0,4,1,7,1c8,0,13-4,15-8c0,0,5,3,12,3c6,0,14-2,21-6c7-3,14-9,17-18c2-9,1-19-1-27-3-8-8-13-13-16s-11-3-15-3c-4,1-9,3-13,8-3,4-2,6-2,6s2,0,4,0s6,1,9,5c4,3,5,8,6,13c1,4,2,10,1,14c0,4-1,8-3,10-2,3-5,3-6,3s-2,0-4-2c-2-1-2-3-3-6c0-3-15-69-16-73-1-3-2-6-1-8c1-3,4-6,8-7v-1c0,0-3-1-8-1-4,0-12,1-17,8c0,0-3-2-8-2-6,0-13,2-17,8v0Z" clip-rule="evenodd" fill="#fefefe"/><path d="M785,89c0,0,3-4,10-5c5-2,9-1,11,0c3,1,5,2,5,2s1-2,4-4c3-1,7-2,11-2s8,1,10,2v1c0,0-3,0-5,2-2,1-4,4-4,8c0,3,1,12,1,12s7,65,8,69c0,2,1,4,2,6c2,3,5,4,8,4l1,1c0,0-5,5-13,5-6,0-10-3-10-3s-5,6-14,6c-5,0-9-3-9-3v0c0,0,3-1,6-3c2-3,2-6,2-7s0-2,0-5c-1-2-11-72-12-75c0-3,0-6-3-8-3-3-8-2-9-2v-1Z" clip-rule="evenodd" fill="#fefefe"/><path d="M1043,88c0,0,5,0,7,3c2,4,2,7,2,9-1,2-12,76-13,79c0,3-3,10-11,9v1c1,1,4,3,7,4c7,3,12,1,16-1c0,0,4,4,10,7c7,2,14,4,22,3c9-1,17-4,22-11c6-7,8-16,9-25c1-8-1-15-5-19-3-5-8-7-12-8s-9-2-15,1c-4,3-5,5-5,5s2,1,4,2s5,3,7,8c1,4,1,9,0,14-1,4-3,10-5,13-2,4-3,6-6,8-2,2-5,2-6,1-1,0-4-1-5-3s-1-3,0-6s14-71,15-75c0-4,1-6,3-8s5-3,10-2v-1c0,0-3-3-7-5s-11-3-19,0c-1-1-3-3-6-5-6-2-13-3-19,1v1Z" clip-rule="evenodd" fill="#fefefe"/><path d="M1132,105c0,0,5-2,12-1c5,1,8,3,10,5s3,3,3,3s2-1,6-1c3-1,7,0,11,2c3,1,7,4,8,6v1c0,0-3-1-6,0-2,0-5,1-7,5-1,3-4,12-4,12s-19,62-20,66c-1,2-1,4-1,7c1,3,3,5,6,6v1c0,0-6,3-14,0-5-3-7-7-7-7s-7,4-15,0c-5-2-7-6-7-6v-1c0,0,3,2,6,0c3-1,5-4,5-5c1-1,1-2,1-5c1-2,20-70,21-73c0-3,1-6-1-9-1-4-6-5-7-5v-1Z" clip-rule="evenodd" fill="#fefefe"/><path d="M852,82c0,0,3-1,6,1c3,1,5,4,6,8c0,5,5,78,5,80s0,6-3,9c-3,2-6,2-6,2v1c0,0,5,3,10,3c6,0,10-2,13-5c0,0,4,4,11,4c6,0,10-3,12-4v-1c0,0-4,0-7-2-3-3-3-6-3-10s-2-62-2-67c0-3-1-7,1-10s4-6,9-6c6,0,8,3,10,5c1,2,3,7,3,14c0,3-1,11-5,16-3,5-7,7-12,7c0,0,0,2,4,7c4,4,9,6,13,6c5,0,9-1,13-4s9-9,11-17s2-17-1-24c-2-7-7-14-15-18s-16-5-20-5-17,1-27,8c0,0-4-4-12-4-7,0-13,4-14,5v1Z" clip-rule="evenodd" fill="#fefefe"/><path d="M992,88c0,0-7,79-7,83-1,5,0,8,3,10c2,2,5,2,5,2v1c0,0-4,3-10,3-8,0-13-5-13-5-1,1-4,4-11,4s-11-5-11-5v-1c4,1,7-1,8-4c1-2,2-5,2-7c0-6,4-78,4-80c0-1-1-5-4-7-3-3-7-3-7-3v0c0,0,5-4,12-4s13,4,14,5c0,0,5-4,16-4c5,0,9,1,13,2c6,3,12,5,16,5c6,0,8-3,8-3s6,3,6,11c0,7-6,14-16,14-6,0-11-3-15-8-5-5-8-8-13-9Z" clip-rule="evenodd" fill="#fefefe"/><path d="M1205,176l2-8c4,1,11,2,16,2c6-1,12-1,16-5s5-8,5-10-1-5-4-7c-2-2-6-4-9-3-2,0-5,0-10,2-6,3-9,3-11,3s-6,0-10-4c-4-3-5-8-5-10c0-3,1-8,5-11c4-2,7-2,7-2s1,2,3,4c3,2,7,3,13,4c9,1,14,2,20,4c5,3,15,9,19,17c4,7,4,13,1,18-2,4-6,8-13,10-8,3-17,1-20,0v1c0,0,7,4,12,10c5,7,7,13,7,20c0,3-1,12-7,18-6,7-15,13-30,12-15,0-28-7-33-11-6-5-13-14-13-25c0-7,4-15,9-18c3-3,7-3,10-3c7,0,12,3,15,7s3,8,3,10c0,0-2,0-4,0-1,0-5,0-9,4-3,3-4,7-4,9c0,1,1,6,5,10c3,3,6,4,8,4c5,0,9,0,13-4c4-3,6-7,8-13c2-5,3-12,1-18-3-6-8-13-16-17Z" clip-rule="evenodd" fill="#fefefe"/><path d="M1459,1451c0,0-6,0-10,5-5,5-5,9-6,11c0,0-2,0-5,1-3,2-7,4-9,8s-3,6-3,6l1,1c0,0,2-3,6-3s7,3,8,4c2,2,52,56,54,59c3,2,3,5,3,7s-1,5-3,8v1c0,0,3-1,6-2c4-2,8-5,10-10c3-4,3-6,3-6s4,0,8-3c5-3,8-7,9-11c1-2,1-4,1-4v-1c0,0-3,4-8,4-4,0-6-3-8-4-2-2-52-53-55-56-4-3-4-6-4-8s1-5,3-7h-1Z" clip-rule="evenodd" fill="#fefefe"/><path d="M1400,1505h1c0,0-2,2-3,4-1,3-1,6,0,7c1,2,2,3,3,5c2,2,47,59,48,61c2,1,4,2,6,2s4,0,6-3c2-2,2-5,2-6s0-5-2-9-3-6-5-8c-1-1-4-6-9-9-2-2-6-4-9-4-5,0-9,3-10,4c0,0-1-1-1-4c0-4,2-8,4-12c3-3,7-6,11-7c4-2,8-2,11-2c4,1,9,3,13,5c4,3,9,9,12,13c3,5,6,11,6,17s-2,10-3,13c-2,4-5,9-10,14s-12,10-19,12c-4,2-7,2-7,2-2,8-11,15-21,16v-1c0,0,5-3,5-9c0-3-2-5-4-7-1-2-44-61-47-64-2-2-5-4-8-4-2,0-5,2-5,2l-1-1c0,0,2-4,5-7s8-6,14-6c0,0,0-5,5-9c4-4,9-5,12-5Z" clip-rule="evenodd" fill="#fefefe"/><path d="M1345,1541c0,0,6-1,10,3c5,3,6,7,6,10c0,2-1,7-6,10s-10,1-14,1c-4-1-8-2-11,0-3,3-2,12,1,18c2,6,3,8,7,17c5,10,14,23,21,31c7,7,13,9,19,7c5-1,9-6,9-11s-4-11-11-10c0,0,0-5,2-9s7-8,14-8c6,0,11,4,13,8c3,3,3,8,3,13-1,4-2,8-6,13s-10,10-19,15-18,6-23,6c-6,0-14-1-23-6-9-6-16-13-21-23-6-11-8-18-10-30c0-4,0-8,0-12c1-10,5-17,7-20c4-4,10-10,18-14c9-3,10-2,13-5c1-2,1-4,1-4Z" clip-rule="evenodd" fill="#fefefe"/><path d="M1257,1635c0,0,5,58,5,61c1,3,2,8,10,7v1c0,0-1,3-3,5s-6,3-12,1c0,0-1,2-3,5-3,3-9,5-15,3l-1-1c0,0,3,0,5-6c2-5,2-11,2-16s-4-71-4-74-1-6-5-8-8-1-8-1h-1c5-8,13-12,21-9c4-8,12-13,21-11v1c0,0-3,2-5,5-1,3-1,7,2,10s48,51,55,57s11,8,15,6l1,1c0,0-2,3-6,7-5,4-12,7-18,5c0,0-3,5-6,8-4,2-9,4-14,2v-1c0,0,4-2,3-6c0-3-1-4-3-7-3-3-36-45-36-45Z" clip-rule="evenodd" fill="#fefefe"/><path d="M1127,1648c0,0,2-4,7-6c5-3,10-3,15-1v1c0,0-3,1-5,3-2,3-2,7-1,11s8,27,8,27s3-2,5-5c2-4,3-9,3-16c1-8,2-12,3-18s3-10,7-13s8-3,9-3c2,0,6,0,10,3c3,3,5,7,6,10c1,4,0,7,0,8c0,0-2-1-5-1s-6,1-8,3-4,6-5,10c-1,3-3,9-5,13-2,3-3,6-7,9c0,0,5-1,10-1s13,1,20,6c7,4,11,10,14,14c0,0,7,10,9,13s7,8,13,5l1,1c0,0-2,3-5,5-4,3-8,5-13,5-4,0-7-1-7-1s-1,2-4,4c-2,3-5,4-9,4-3,0-6-1-6-1v-1c0,0,3-2,3-7c0-2,0-3-2-6-1-3-6-12-8-15s-4-5-6-7c-3-3-5-4-9-5-3-1-7-1-10,0c0,0,9,31,10,35s3,6,7,7c3,2,6,1,7,0v1c0,0-1,2-4,4s-8,4-13,4-8-1-8-1-1,2-4,4-8,4-13,4-8-1-8-1v-1c0,0,3,0,6-3c2-2,3-5,2-10-1-4-18-70-20-75-1-6-3-8-5-9-3-2-7-1-7-1v-1c0,0,2-3,7-5c4-2,10-3,15,0Z" clip-rule="evenodd" fill="#fefefe"/><path d="M1070,1662c2-3,6-7,14-7c5,0,8,1,8,1v1c0,0-2,1-4,3s-3,4-3,5s0,3,1,6c0,3,15,71,16,77c1,5,5,9,13,8v0c0,0-2,3-6,5s-11,4-19,0c0,0-2,3-7,5-5,3-12,3-19,0v0c0,0,3-1,6-3c2-2,4-5,3-11s-10-54-10-54c-7,20-15,41-25,64c0,0,2,7,11,6v1c0,0-3,3-8,4-5,2-11,2-17-2-7,7-18,8-26,4v-1c0,0,4,0,6-3c3-2,4-5,4-8c0-2-7-73-8-78c0-3,0-6-3-9-2-2-4-3-7-3l-1-1c0,0,5-5,13-5c6,0,10,4,10,4s3-3,7-5s11-2,16,1v1c0,0-4,0-6,3-3,3-3,7-2,10c0,4,7,53,7,53c9-22,17-43,24-63-3-4-6-6-10-5v-1c6-6,14-8,22-3Z" clip-rule="evenodd" fill="#fefefe"/><path d="M932,1709c0,0,11,46,14,56s-4,11-6,12v1c6,5,13,5,22-1c0,0,4,3,11,3c9,0,16-5,16-5v-1c-5,0-8-5-12-15-5-9-25-71-25-71-2-6,2-12,8-13v0c-7-6-17-4-22,1-6-5-15-6-23-1v1c5,0,12,4,9,12s-21,55-26,65-10,22-17,23v1c0,0,4,4,10,4s9-4,9-4s4,5,9,5s7-4,7-4v-1c0,0-8-2-5-11c4-9,21-57,21-57Z" clip-rule="evenodd" fill="#fefefe"/><path d="M801,1665c7-4,16-4,23,4c0,0,4-4,13-4c6,0,10,1,14,3c5,2,7,3,10,3s7-1,9-3c0,0,6,5,6,11s-5,14-15,14c-5,0-10-3-14-7-4-5-7-8-11-8c0,0-8,65-9,73-1,7-1,9,1,13c2,3,7,4,10,4s7-1,10-5c3-3,7-10,7-20c0-11-6-21-21-21c0,0,2-4,7-7c5-4,12-5,18-3c7,2,14,6,18,16c5,9,4,24-2,33-6,10-14,14-26,16-14,4-32-2-39-8-9,5-20,3-26-3v-1c5,1,11,0,13-10c2-11,11-70,12-78c1-7-3-11-8-12v0Z" clip-rule="evenodd" fill="#fefefe"/><path d="M798,1664v0c0,0-2-3-4-5-7-3-12,0-13,2c0,0-2-3-4-5-2-1-6-2-10,1l-1,1c0,0,6,4,3,11-3,5-20,33-20,33s-9-32-10-38s0-10,5-10v-1c0,0-4-7-10-7-5,0-8,2-8,2s-3-4-8-6c-4-2-10-3-15-1v1c0,0,3,1,5,9c6,25,15,64,19,78-1,2-4,8-9,11s-10,1-12-2-2-8,1-11s6-3,10-4c0,0-1-3-4-6-2-3-6-5-12-5s-10,2-13,7c-4,5-4,12-3,16s4,8,9,12s15,7,21,7c7,0,12-2,20-9s43-60,48-68s11-13,15-13Z" clip-rule="evenodd" fill="#fefefe"/><path d="M673,1631c0,0,4-3,12,0c9,3,12,8,12,8v1c0,0-1-1-3-1-3,0-7,1-10,8-2,7-23,69-25,74-2,7,0,12,7,15v1c0,0-3,1-6,1-6,0-14-3-18-10c0,0-3,1-7,1-8,0-18-10-18-10v0c0,0,5,2,10-1c3-2,4-5,6-9c2-5,22-58,24-64c1-3-1-9-7-12-8-4-14-2-16,3-4,7-25,59-28,65-2,7-1,12,6,15v1c-10,2-20-3-24-10-9,2-19-2-24-10l1-1c3,1,10,4,15-7s28-62,31-68c1-3,2-5,2-8s-2-6-5-8v-1c8-2,19,3,23,11c0,0,12-4,26,3c10,5,16,13,16,13Z" clip-rule="evenodd" fill="#fefefe"/><path d="M1293,1660c0,0-1,7-7,12-7,6-14,10-27,9-12-1-14-2-20-1-4,2-6,6-7,8c0,0-2-1-5-3-3-3-4-7-4-12c0-4,1-8,5-11c4-4,10-5,16-3c5,1,10,3,16,5c7,2,15,4,22,1c6-2,11-5,11-5Z" clip-rule="evenodd" fill="#fefefe"/><path d="M594,1591c0,0,3,3,3,8c0,6-3,10-6,11-3,2-7,3-12,1-5-3-6-7-7-9s-2-6-2-8c-1-2-3-5-6-5-4,0-7,3-9,5-4,3-9,9-13,16-4,5-7,10-10,15-1,2-6,12-8,17-3,6-3,10-3,14s0,8,4,11c4,4,8,4,9,4s3,0,6-2s5-5,5-8-2-5-2-6c0,0,4-3,9-3s9,3,12,6c3,4,3,7,3,10c0,2,0,6-4,10-3,4-9,8-18,8s-16-3-21-6c-6-2-13-7-18-13-4-6-6-10-8-15-2-4-3-10-3-14c0-5,1-9,3-15c1-6,3-9,7-15c3-6,8-12,11-15c2-3,9-9,18-13c8-5,15-6,20-6c6,0,12,2,17,5c6,3,9,5,12,9c4,3,5,3,8,3c2,0,3,0,3,0Z" clip-rule="evenodd" fill="#fefefe"/><path d="M321,1523h-1c0,0,1,4,3,7c2,4,7,11,16,11c0,0,0,4,3,8c3,5,9,9,16,10v0c0,0-2-2-3-5-1-2-1-5,0-7s3-4,7-8c4-5,40-44,44-48s8-5,10-5c3,0,6,1,8,5c2,3,1,9-2,14-4,5-9,12-18,14-8,2-12-1-14-3c0,0-1,2-1,8c0,5,2,13,12,17c11,5,22-2,27-6c5-5,15-16,15-30c0-13-8-22-12-25-3-4-11-10-22-12c0-9-8-16-16-17v1c1,1,6,8-1,15-8,7-49,50-55,55-3,2-4,4-8,4-3,1-6,0-8-3Z" clip-rule="evenodd" fill="#fefefe"/><path d="M483,1539c0,0-33,45-38,52-5,8-7,12-7,17s4,12,12,12c9,0,11-7,11-10s-1-5-1-5s3-2,7-2c7,0,16,5,16,16s-10,18-20,18c-14,0-29-10-37-18s-10-13-10-13c-6,0-13-3-16-8-4-4-5-8-5-8h1c7,5,13,1,16-4c4-5,44-55,46-59c3-3,5-5,5-9s-4-7-4-7v-1c0,0,7,0,13,5c5,5,5,10,5,10s5-1,12,2c8,4,11,9,15,14s9,8,15,6c0,0,1,2,1,6c0,6-4,14-13,14s-14-7-15-12c-2-5-4-13-9-16Z" clip-rule="evenodd" fill="#fefefe"/><path d="M451,1560c0,0-2,5,2,10c5,5,8,0,15,8c5,6,6,13,14,14s11-9,8-13c0,0-2,2-9-4s-8-8-16-9c-6-1-10-1-14-6Z" clip-rule="evenodd" fill="#fefefe"/><path d="M1333,287c-21-12-41-24-61-34l-20,7c18,9,36,18,53,28c3,2,18,11,26,16c18,12,33,19,47,17c11-1,16-6,20-11c3-6,2-12,0-16c0-2-1-3-2-4c10,9,16,18,25,28c10,6,21,11,30,17-2-1-4-2-5-2-8-2-14,0-20,1-9,2-16,5-28,5-10,0-22-3-22-3s13,10,21,17c5,3,13,10,21,15c8,4,16,8,23,9c14,2,23-5,27-11c2-5,2-12-2-18c9,10,15,21,23,31c9,8,20,14,27,20-1,0-1,0-1,0-7-4-13-5-25-3-13,2-17,2-29,1-11-2-19-5-19-5c3,3,9,9,16,16c8,9,18,18,23,21c5,4,16,12,29,12c12,0,18-8,20-11s3-9,0-14c0-1,0-1,0-2c7,11,13,24,18,34c8,8,16,14,25,23-4-3-8-5-13-6-13-2-22,2-38-2s-22-8-22-8c9,11,14,18,23,29c5,7,11,12,14,15c11,9,16,12,28,13c8,1,18-5,21-13c1-4,0-8-1-11v0c4,8,9,21,14,35c8,9,14,14,22,26c0-1-1-2-2-2-6-5-13-6-23-8-10-1-18-1-29-6-12-5-16-8-16-8s11,18,18,30c7,11,17,23,28,30c10,6,22,5,29-1s6-13,5-17c4,9,7,23,11,37c5,8,13,18,18,28-1-2-3-4-4-5-7-5-17-7-23-8-6-2-15-4-26-10-9-5-14-9-14-9s5,9,8,16c4,8,13,29,21,39s19,18,32,15c12-3,15-11,14-19c0,0,0,0,0,0v0c3,10,5,23,6,37c5,10,11,20,16,31-5-8-13-12-24-16-10-3-23-8-39-24c0,0,6,19,9,27c3,9,6,19,12,30c7,11,16,20,29,20c12,0,17-7,18-14c0-1,0-2,0-3v0c1,6,2,15,2,22s0,11,0,16c0,2,4,6,6,8s11,7,11,7c0-1,2-4,6-9c4-6,4-10,4-12-1-2-3-7-7-17-5-10-8-19-8-19v0c0,0,0,0,0,0c1,3,4,6,6,7c3,3,6,3,10,3s8-2,10-3c8-5,13-15,13-32s-5-32-8-43c-3-10-9-25-9-25s1,6-2,19c-2,7-4,12-8,18-3,6-8,12-11,17-5,7-6,13-6,18-2-12-2-24-4-34-6-11-13-23-19-34c0,0,1,1,1,1c3,4,9,9,18,7c8-3,14-9,17-18c2-10,1-24-2-35-4-12-10-25-14-33-3-8-8-17-8-17s1,8,0,15-4,20-9,29-10,18-10,28c0,1,0,2,0,3-3-12-5-25-8-34-4-7-15-19-23-32c1,1,2,2,2,2c5,5,13,7,20,3c7-3,11-9,12-16c2-6,2-12-1-23-2-11-8-22-12-30-5-8-19-30-20-31c1,1,2,11,2,16s0,13-3,23c-3,9-7,17-9,23-1,6-1,10,0,14-4-9-7-22-11-32-7-8-20-20-27-29c1,1,3,2,4,3c2,1,4,2,7,2c4,1,7,0,11-2c9-7,12-16,10-30-1-7-5-16-9-24-5-9-10-16-14-21-8-9-12-15-19-23c0,0,4,13,4,26c0,14-3,20-6,32-1,7-1,12,0,17c0,1,1,2,1,2-5-9-10-20-15-30-9-9-22-18-30-26c0,0,1,0,1,0c6,4,14,5,20,0c9-7,11-17,8-30-2-8-9-20-17-29-5-6-10-12-13-15-9-9-16-16-20-20c0,0,4,8,7,23c1,9,1,16,0,22-1,5-2,9-2,15-1,7,1,13,3,17v0c-7-10-13-21-19-29-6-4-22-14-32-22c1,1,3,2,4,2c2,1,5,1,8,1c4-1,8-3,10-7c4-4,6-8,6-16s-5-19-12-28c-8-10-20-20-27-26-9-7-18-14-21-16c0,0,4,6,9,21c3,9,3,18,3,27-1,6-1,12,0,18c1,3,2,6,4,9-8-9-17-21-21-26-10-5-28-14-35-18c5,2,11,2,17-1c4-3,8-10,9-17c1-18-18-36-34-47-13-9-34-21-34-21-16-10-48-27-61-33c2,6,5,13,8,21c22,11,44,24,67,38c0,2,1,4,1,7c1,1,1,3,1,5-17-11-37-23-65-38l6,21c24,13,45,26,61,37v0c1,1,1,3,1,4c1,4,3,7,5,10-20-14-41-27-63-39l3,10-11,3c21,12,42,25,63,39v0c-2-1-4-1-6-1-3,0-7,0-10,1v0c-19-13-39-25-58-36l-21,7c22,11,42,23,61,35-4,1-7,3-11,3v0Z" clip-rule="evenodd" fill="#fbbc00"/><path d="M1363,289c6-1,14,3,12,8-2,4-7,6-15,4-7-1-19-2-19-2s9,5,16,8c7,2,18,7,26,3c8-3,7-11,6-14-3-6-10-9-15-9s-11,2-11,2Z" clip-rule="evenodd" fill="#fefefe"/><path d="M1399,235c5,8,10,16,5,21s-12-5-12-8c0,3,0,6,1,10c1,3,3,7,7,9c10,6,20,2,20-8c0-7-7-16-13-22-5-6-16-14-16-14s4,7,8,12Z" clip-rule="evenodd" fill="#fefefe"/><path d="M1412,293l15,18l21,11c-6-6-11-13-15-18-6-3-13-7-21-11Z" clip-rule="evenodd" fill="#fefefe"/><path d="M1444,354c-4,4-10,3-19,0-8-2-13-3-14-3c3,2,9,6,15,9c5,4,12,6,16,7c3,1,7,1,11-1c3-1,6-5,6-8c0-4-1-8-5-11-3-3-7-4-11-4s-9,1-9,1s3,0,6,1c2,1,4,3,5,4c1,2,0,4-1,5Z" clip-rule="evenodd" fill="#fefefe"/><path d="M1468,317c1,6,6,11,12,13c6,1,12-2,14-8c1-6-4-16-10-24-5-7-10-13-15-17c1,1,7,15,10,21c3,7,2,12-1,14s-5,0-8-3c-2-2-3-5-3-7c0,1-1,5,1,11Z" clip-rule="evenodd" fill="#fefefe"/><polygon points="1482,354 1495,373 1514,386 1502,367" clip-rule="evenodd" fill="#fefefe"/><path d="M1548,382c-4,4-7,3-10-1-2-3-3-8-3-8-1,7-1,13,2,18c4,5,8,8,13,8s10-4,10-12-5-18-9-25c-5-7-10-13-10-13s4,13,5,16c1,2,5,13,2,17Z" clip-rule="evenodd" fill="#fefefe"/><path d="M1506,418c-3,3-8,2-17-2-4-2-14-5-14-5c3,4,16,14,27,19c10,4,15-1,17-2c2-2,5-10-1-16s-11-6-14-6-6,0-6,0c3,1,5,2,8,4s4,6,0,8Z" clip-rule="evenodd" fill="#fefefe"/><path d="M1545,422c4,7,7,14,10,21l18,15c-4-8-8-16-10-21-7-6-13-11-18-15Z" clip-rule="evenodd" fill="#fefefe"/><path d="M1619,461c0-9-5-18-7-24-3-6-8-13-9-14c1,1,4,19,5,24s0,10-4,12c-4,1-6-3-8-6-1-4,0-6,0-6s-1,2-2,7c-1,4,0,9,2,13c3,4,7,7,12,7s11-3,11-13Z" clip-rule="evenodd" fill="#fefefe"/><path d="M1562,488c-4,4-10,1-16-2-5-3-15-8-15-9c3,6,13,15,18,18c4,4,12,9,19,7c8-2,9-9,8-13s-4-8-9-11c-6-2-12-2-12-2s3,1,5,3s6,6,2,9Z" clip-rule="evenodd" fill="#fefefe"/><path d="M1599,497c3,7,6,14,8,21l16,18-8-22c-5-5-10-11-16-17Z" clip-rule="evenodd" fill="#fefefe"/><path d="M1658,519c1,7,2,13,0,18-2,4-7,4-9,2-2-3-3-8-2-12-1,1-4,7-4,13c0,5,3,12,8,15s12,2,15-4c3-5,2-13,1-20s-7-21-10-26c0,0,1,7,1,14Z" clip-rule="evenodd" fill="#fefefe"/><path d="M1644,577c2,8,4,16,6,23l13,19c-2-8-3-16-5-23-4-6-9-12-14-19Z" clip-rule="evenodd" fill="#fefefe"/><path d="M1608,555c3,3,5,7,0,10-5,2-11-2-15-5-5-3-14-10-14-10c3,5,10,15,15,19c5,5,11,10,17,10c7,0,11-5,11-11s-4-12-10-14c-5-2-9-2-9-2s2,0,5,3Z" clip-rule="evenodd" fill="#fefefe"/><path d="M1659,647c-1-6-5-10-9-12s-9-3-9-3s3,2,5,4c1,1,5,6,1,9-5,3-11-1-15-4-3-3-14-12-14-13c3,7,10,20,17,26c7,7,13,8,18,6c4-2,7-7,6-13Z" clip-rule="evenodd" fill="#fefefe"/><path d="M1706,610c-2-11-5-18-5-18s0,24-2,30c-2,5-8,7-11,2-2-6,0-11,0-11s-5,7-5,14c0,8,5,14,10,16s11-1,13-7s3-14,0-26Z" clip-rule="evenodd" fill="#fefefe"/><polygon points="1680,663 1683,686 1694,706 1692,683" clip-rule="evenodd" fill="#fefefe"/><path d="M1733,731c6-6,5-22,5-29-1-7-3-18-3-18s-2,15-4,23c-1,7-4,12-10,10-5-1-3-12-2-14c0,0-4,5-6,10-1,5,0,12,3,16s10,8,17,2Z" clip-rule="evenodd" fill="#fefefe"/><path d="M1676,723c2,3,1,6-2,8-3,1-8-1-11-4-3-4-15-17-15-17s2,7,5,14c5,9,9,16,16,20c6,4,13,2,16-4c3-5,1-13-3-17s-11-6-11-6c2,2,4,3,5,6Z" clip-rule="evenodd" fill="#fefefe"/><path d="M1775,920c3,5,3,9,4,11v0c0,0,0-2,1-4s3-3,5-4c1-1,2-3,2-6-1-2-3-6-7-10-3-4-9-7-15-8-2,0-4,0-6,0c0,0,0-6-2-11-1-5-3-10-9-15-6-6-14-9-23-9s-17,4-23,10c-7,5-10,12-11,18-1,5,0,9,0,9-5,0-12,2-18,7-7,5-9,11-9,11c0,2,0,2,2,4c1,2,2,2,4,4c2,1,2,3,2,3v0c0-2,2-7,6-11s9-4,12-4s8,0,11,3c4,3,4,7,4,9c0,4-1,6-3,8-2,3-5,4-5,4v-1c0-1,1-4,0-6s-4-4-7-4c-4,0-8,3-8,8c0,6,4,9,9,11c4,1,12,2,19-3c8-5,9-13,9-16c0-4-1-10-5-16-5-6-12-9-12-9c5-3,10-3,15-1-1-7,2-15,7-19c6,3,9,11,9,18c6-3,11-2,15,1-5,2-16,9-16,25c0,6,1,9,3,13c4,5,11,9,19,9c11,0,15-6,15-12s-4-9-8-9-8,2-8,7c0,2,1,4,1,4v0c0,0-9-2-9-12s9-14,16-14c6,0,11,3,14,7Z" clip-rule="evenodd" fill="#fefefe"/><path d="M1753,1149c4-1,5-3,6-6c0,0,0-4-2-10-3-5-7-9-10-11s-7-3-10-4c0,0,2-5,2-10c0-6-2-13-7-20s-11-10-17-12-15-2-21,0c-6,3-12,6-17,12s-6,12-6,15c0,0-3-1-8-1s-11,1-16,4c-4,3-7,6-7,6s0,1,0,2c0,2,1,3,2,5c1,1,2,2,3,3c0,2,0,3,0,3v1c0,0,1-2,3-5c2-2,5-5,9-6s9-1,13,1c5,3,9,7,9,12s-4,9-7,11c-3,1-5,1-5,1v0c0,0,2-2,2-5s-3-6-6-7-6,0-8,2-3,6-2,9c1,4,4,7,9,9c4,2,9,3,14,2c4-1,10-4,13-9s3-10,3-13s0-6-2-11c-3-5-6-7-9-10c5-2,10-1,15,3c1-7,5-14,12-16c5,6,6,13,4,19c7-1,11,2,14,5c0,0-7,1-14,7-7,5-8,12-9,14c0,2-1,7,1,12c1,4,4,9,10,12c5,3,11,4,15,3c4-2,6-4,8-8c1-5-1-9-4-11-3-1-6-1-8,1s-4,4-3,8v0c0,0-6-4-6-11s6-13,15-13c4,0,8,2,10,4c2,1,4,3,4,4c2,3,4,8,3,14v0c0,0,1-3,5-5Z" clip-rule="evenodd" fill="#fefefe"/><path d="M1666,1358c4,0,6-1,8-4c0,0,0-4-1-10-1-7-3-11-6-14s-5-5-8-6c0,0,2-4,4-9c1-6,2-13-1-21s-8-13-14-17c-5-3-14-5-20-5-7,1-13,3-19,7-7,5-9,10-10,13c0,0-3-2-8-3-4-2-10-2-16,0-5,2-8,4-8,4s-1,1-1,1c-1,2,0,4,1,6c1,1,1,2,1,4c1,2,0,2,0,3v0c0,0,1-2,4-3c2-2,5-4,10-4c4,0,9,1,13,5c4,3,6,9,4,13-1,5-5,8-8,9-3,0-6,0-6,0v-1c0,0,3-1,3-4c1-3-1-6-3-8-3-2-7-2-9,0s-4,5-4,8c0,4,2,8,6,11s8,5,13,5c5,1,11-1,15-5c4-3,6-9,7-11c0-3,1-7,0-12s-3-8-6-11c5-1,10,1,14,6c3-7,9-12,16-12c3,7,2,14-2,20c8,1,11,4,13,8c0,0-7-1-15,2-8,4-12,11-13,12-1,2-2,7-2,12c0,4,2,10,6,14c5,5,10,7,14,6c4,0,8-1,10-5c3-4,2-9-1-11-2-2-6-3-8-2-3,1-4,4-5,7v0c0,0-4-4-3-11c2-7,10-12,18-10c4,2,7,4,9,7c2,2,2,4,3,5c1,3,1,8-1,14v0c0,0,1-3,6-3Z" clip-rule="evenodd" fill="#fefefe"/><path d="M1753,935c0-5,4-7,8-7s8,3,8,9-4,12-15,12c-8,0-15-4-19-9-2-4-3-7-3-13c0-16,11-23,16-25-4-3-9-4-15-1c0-7-3-15-9-18-5,4-8,12-7,19-5-2-10-2-15,1c0,0,7,3,12,9c4,6,5,12,5,16c0,3-1,11-9,16-7,5-15,4-19,3-5-2-9-5-9-11c0-5,4-8,8-8c3,0,6,2,7,4s0,5,0,6v1c0,0,3-1,5-4c2-2,3-4,3-8c0-2,0-6-4-9-3-3-8-3-11-3s-8,0-12,4-6,9-6,11v0c0,0,0-2-2-3-2-2-3-2-4-4-2-2-2-2-2-4c0,0-2,3-2,6-1,3-1,8,0,12c2,4,4,9,7,12s8,8,15,9c4,1,5,1,9,1c3,0,15,1,17,1s6,1,7,4c2,2,1,5,0,7c0,2-1,3-2,4-2,2-4,3-4,6-1,2-1,4-1,6c1,2,2,4,5,8c3,3,6,7,7,8c0,0,2-2,5-4c3-3,6-5,8-8s2-6,2-7c0-2-1-4-3-7-2-2-3-5-3-8s1-5,1-5c1-1,3-3,7-3s11,1,18,1s8,0,13-2c6-2,9-6,11-8s6-8,7-13s1-8,1-10c0-1-1-8-2-12c0,3-1,5-2,6-2,1-4,2-5,4s-1,4-1,4v0c-1-2-1-6-4-11-3-4-8-7-14-7-7,0-16,4-16,14s9,12,9,12v0c0,0-1-2-1-4Z" clip-rule="evenodd" fill="#00a0e3"/><path d="M1759,1143c-1,3-2,5-6,6-4,2-5,5-5,5v0c1-6-1-11-3-14c0-1-2-3-4-4-2-2-6-4-10-4-9,0-15,6-15,13s6,11,6,11v0c-1-4,1-6,3-8s5-2,8-1c3,2,5,6,4,11-2,4-4,6-8,8-4,1-10,0-15-3-6-3-9-8-10-12-2-5-1-10-1-12c1-2,2-9,9-14c7-6,14-7,14-7-3-3-7-6-14-5c2-6,1-13-4-19-7,2-11,9-12,16-5-4-10-5-15-3c3,3,6,5,9,10c2,5,2,8,2,11s0,8-3,13-9,8-13,9c-5,1-10,0-14-2-5-2-8-5-9-9-1-3,0-7,2-9s5-3,8-2s6,4,6,7-2,5-2,5v0c0,0,2,0,5-1c3-2,7-6,7-11s-4-9-9-12c-4-2-9-2-13-1s-7,4-9,6c-2,3-3,5-3,5v-1c0,0,0-1,0-3-1-1-2-2-3-3-1-2-2-3-2-5c0-1,0-2,0-2s-6,7-6,17c0,11,6,18,9,22c3,3,6,5,11,7c4,1,14,4,17,5s9,3,9,8c0,4-2,6-4,8-1,1-4,2-5,3-3,2-4,5-4,8s1,7,3,11c3,5,4,8,4,8c4-2,10-4,14-7c4-2,5-5,6-8c0-2-1-5-2-7-1-3-1-4-1-7c1-4,2-6,5-7s5,0,7,1c3,1,15,4,18,5c4,2,9,2,14,1s8-3,13-7c4-3,7-9,9-12c1-4,2-8,2-12c1-3,0-6,0-6Z" clip-rule="evenodd" fill="#00a0e3"/><path d="M1591,1327c3-1,7-4,8-9c2-4,0-10-4-13-4-4-9-5-13-5-5,0-8,2-10,4-3,1-4,3-4,3v0c0-1,1-1,0-3c0-2,0-3-1-4-1-2-2-4-1-6c0,0,1-1,1-1s-8,5-11,15s1,19,3,23c2,3,5,7,9,9c3,3,12,8,15,10s8,5,7,10c-1,3-3,5-6,7-2,1-4,1-6,1-3,2-5,4-6,7s0,7,1,12s1,8,1,8c4-1,11-1,15-3c5-1,7-4,8-6c1-3,1-5,0-8c0-3,0-4,1-7c2-3,4-5,7-5c2,0,4,1,7,3c2,1,12,8,15,10c4,2,8,4,13,4s9-1,14-3c6-3,10-7,13-10c2-3,4-7,5-10c1-4,2-6,2-6-2,3-4,4-8,4-5,0-6,3-6,3v0c2-6,2-11,1-14-1-1-1-3-3-5-2-3-5-5-9-7-8-2-16,3-18,10-1,7,3,11,3,11v0c1-3,2-6,5-7c2-1,6,0,8,2c3,2,4,7,1,11-2,4-6,5-10,5-4,1-9-1-14-6-4-4-6-10-6-14c0-5,1-10,2-12c1-1,5-8,13-12c8-3,15-2,15-2-2-4-5-7-13-8c4-6,5-13,2-20-7,0-13,5-16,12-4-5-9-7-14-6c3,3,5,6,6,11s0,9,0,12c-1,2-3,8-7,11-4,4-10,6-15,5-5,0-9-2-13-5s-6-7-6-11c0-3,2-6,4-8s6-2,9,0c2,2,4,5,3,8c0,3-3,4-3,4v1c0,0,3,0,6,0Z" clip-rule="evenodd" fill="#00a0e3"/><path d="M1521,1364c-4,3-5,4-5,4c2,0,8,1,13,5c7,5,11,12,12,16c2,4,4,12,2,18-2,7-8,10-14,10s-10-2-13-7c-2-3-2-7-1-11c0-1,1-2,2-3c2-4,6-5,7-5-2-2-4-3-7-3-4-1-7-1-11,0-3,1-7,3-9,6-2,2-3,4-4,7-1,6,0,12,0,12-2,1-5,3-8,6s-4,6-5,10c-2,5,0,7,0,8c0,0,3-2,8-4c4-2,9-3,13-4c3,0,6,0,8,0c5,0,11,1,17,4c7,2,11,5,13,7s6,6,10,12c3,6,5,11,6,15c0,5,1,12-1,20-2,7-6,13-6,13c3,1,11,0,17-7c6-5,7-10,8-12c0,0,5,1,11-2c6-2,9-7,11-11c3-4,4-10,2-16s-5-9-5-9c0,4-3,10-7,12-4,3-11,4-17-1-5-6-5-12-4-17c1-4,4-8,10-10s15-2,20-1s11,3,17,7c5,5,5,10,5,10c5-7,7-14,3-21c7,0,12-4,15-11-5-4-11-6-17-4c3-6,3-14-4-19c0,0,0,4-3,8-4,5-9,9-17,11-8,1-13,0-19,1-7,0-11,2-11,2c1-7-2-15-3-19-2-4-5-13-2-22c2-8,9-12,9-12-1-1-5-3-10-2-6,1-9,4-9,4-1-6-5-10-11-14c0,0-2,3-4,8-1,5,1,9,1,9-5-1-10-1-13,2Z" clip-rule="evenodd" fill="#fbbc00"/><path d="M1522,1366v1c0,0,1,0,2,0c2,1,4,2,7,4c3,3,5,5,7,8c3,3,5,7,5,9c1,2,2,5,3,9c1,3,1,7,0,11s-4,6-6,8c-3,3-7,4-11,4-3,0-6-1-9-2-2-2-4-4-6-6-1-2-2-5-2-7-1-2-1-4,0-6c0-1,1-2,1-3s1-1,1-2c2-1,3-3,4-3-1-1-1-1-2-1s-3,0-5,0c-1,0-2,0-4,0-1,1-3,2-4,3-2,0-3,1-4,3-1,1-2,1-2,2-1,1-1,2-1,4-2,5,0,10,0,10v3h-2c-1,1-2,2-3,3-2,1-3,2-4,3s-2,3-3,4c-1,2-1,3-2,5c0,1,0,2,0,3c1,0,3-1,5-2s4-2,7-3c2,0,4-1,7-1c1,0,3,0,4,0c2-1,3-1,4-1v0c3,1,6,1,10,2c2,0,5,1,8,2c4,2,6,3,8,5c3,1,4,2,6,3c1,1,2,3,4,5s4,4,6,7s3,6,4,9s2,5,2,8c1,3,1,6,1,10s-1,7-2,10c-1,5-3,8-4,11c1,0,2-1,4-1c2-1,5-3,8-5c4-5,6-9,6-11l1-3l2,1c0,0,5,0,10-2c2-1,4-2,6-4s3-4,4-6s2-5,2-7c1-3,1-5,0-7s-1-3-2-4c0,1-1,1-1,2-1,3-3,5-6,7-2,1-6,2-10,2-3,0-7-2-9-4-3-3-5-6-5-9-1-4-1-7,0-10c0-3,2-5,3-7c2-2,5-4,8-5s7-2,10-2c5,0,9,0,12,0v0c2,1,5,1,8,3c3,1,6,3,9,6c2,1,4,3,5,5c1-1,1-3,1-5c1-3,0-6-1-8l-3-4h5c3,0,5-1,7-3c2-1,3-3,5-5-2-1-4-2-6-3-2,0-5,0-7,0l-5,2l2-5c1-3,2-6,1-9c0-2-1-3-2-4c0,1-1,3-2,5-2,2-4,5-7,7s-7,3-11,4c-6,1-9,1-13,1-2,0-5,0-7,0-6,1-10,2-10,2l-4,2l1-4c0-4,0-7-1-10s-2-6-3-8v0c0-2-2-6-2-10-1-4-1-9,0-13c1-6,4-9,7-12v0c-2,0-3,0-5,0-4,1-7,4-7,4l-4,4v-6c-1-2-2-4-3-6-2-1-3-3-5-4-1,1-2,2-2,4-1,4,0,8,0,8l3,5-6-2c-2,0-4,0-6,0s-3,1-5,2Zm-8,2c0,0,1-3,5-6c2-2,5-3,7-3s3,0,4,0c0-2,0-4,1-7c1-5,5-8,5-9l1-1l2,1c3,2,6,4,8,7c1,1,2,3,3,5c1-1,4-2,6-3c3,0,5,0,7,0c3,1,5,2,5,3l4,2-4,2c0,0-6,3-8,11-1,4-1,8,0,11c0,4,1,7,2,9s2,5,3,9c0,2,1,5,1,7c2,0,4-1,8-1c2,0,5,0,7,0c3,0,7,0,12-1c3-1,6-2,9-4c2-1,4-3,5-5c3-4,4-8,4-8v-4l4,3c3,3,5,6,6,10c1,2,1,5,0,8c2,0,4,0,6,0c3,1,6,3,9,5l1,2-1,2c-2,3-4,6-7,8-2,2-4,3-6,3c1,3,1,6,0,9c0,4-2,8-4,11l-4,5-1-6c0,0-1-4-5-8-3-2-5-3-8-4-2-2-5-2-7-3-3,0-6,0-10,0s-7,1-9,2c-3,1-4,2-6,3-1,2-2,3-2,5-1,2-1,5,0,8c0,2,1,4,3,6s4,3,6,3c3,0,6-1,8-2c1-1,2-2,3-4s2-4,2-6v-5l4,3c0,0,5,3,7,10c1,3,1,6,1,9-1,3-2,7-3,9-2,3-3,5-6,8-2,2-4,3-7,5-4,1-8,2-10,2-1,2-3,6-8,11-3,3-7,6-10,7-4,1-8,1-10,0l-3-1l2-3c0,0,3-5,5-12c1-3,1-6,2-9c0-3-1-7-1-9s-1-5-2-7c-1-3-2-5-3-8-2-3-4-5-6-7-1-1-3-3-4-4s-2-2-4-3-5-3-8-4c-2-1-5-2-7-2-4-1-6-1-9-1-1,0-2,0-4,0-1,0-2,0-4,0s-4,1-6,1c-2,1-4,2-6,2-5,3-7,4-7,4l-3,2-1-3c-1-1-2-4-1-10v0c1-2,1-4,2-5c1-2,3-4,4-6c2-1,3-2,4-4c1,0,2-1,3-1c0-3,0-7,1-12c0-1,1-3,1-4c1-1,2-3,3-4s3-3,5-4s4-2,6-3v0c1,0,3,0,5-1c2,0,4,1,6,1s3,1,5,2c1,0,2,1,3,2l5,3-6,1c0,0-1,1-2,1-1,1-2,2-3,3s-1,1-1,2c-1,0-1,1-1,1v0c0,1,0,3,0,4c0,2,1,3,1,5c2,2,3,3,5,4s4,2,6,2c3,0,6-1,8-3c2-1,3-3,4-6c0-2,0-6,0-8-1-3-2-6-2-8-1-2-3-5-5-8-1-2-4-5-6-6-2-2-4-3-6-4-3-1-4-1-5-1h-4l1-3Z" clip-rule="evenodd" fill="#fefefe"/><path d="M1703,1251c2,4,0,10-3,13-3,4-10,7-16,3-7-4-9-10-9-15c0-4,2-8,7-12s15-6,20-7c4,0,11,0,17,3c6,4,8,8,8,8c3-7,3-15-3-21c7-1,10-6,12-14-6-3-12-3-17,0c1-7-1-14-9-17c0,0,0,4-1,9-2,5-6,10-14,14-7,4-12,4-18,6s-10,5-10,5c-1-7-5-14-8-17-3-4-8-12-8-21s6-14,6-14c-1-1-5-2-10,0-5,3-8,7-8,7-2-5-7-9-13-11c0,0-2,4-2,9s3,8,3,8c-5,0-10,2-13,6-2,4-3,5-3,5c2-1,7-1,14,2c7,2,13,8,15,12c3,3,7,9,7,17c0,7-5,11-10,13-6,1-11,0-15-4-4-3-6-9-4-14c2-4,6-6,6-6-4-2-12-2-17,2-6,3-10,9-10,15c0,7,4,12,4,12-4,3-9,14-9,19s2,8,2,8s2-2,7-6c3-3,8-5,12-7c3-1,5-2,7-2c5-1,11-2,18-1c6,1,11,2,14,4c3,1,7,3,12,8s8,9,10,14c2,4,4,11,4,19c0,7-2,14-2,14c4,0,10-3,15-11c4-7,4-11,4-14c0,0,5-1,10-4c5-4,8-10,9-14c0-5,0-11-3-16-3-6-8-7-8-7Z" clip-rule="evenodd" fill="#fbbc00"/><path d="M1706,1256c0,1,0,2,0,2-1,3-2,6-4,8s-6,4-10,5c-3,1-6,0-10-2-3-2-5-4-7-7s-2-7-2-10c0-2,0-5,2-7c1-3,3-5,6-7c2-2,6-4,9-5c4-1,8-2,11-2c3-1,6-1,9,0c3,0,7,1,10,3c3,1,5,3,6,4c0-1,0-3,0-5c0-3-1-5-4-8l-3-3l4-1c3-1,5-2,7-4c1-2,2-4,3-6-2-1-4-2-6-2s-5,1-7,2l-4,3v-5c1-3,0-7-1-9s-2-3-3-4c0,2,0,4-1,6-1,3-3,5-5,8s-5,5-9,7c-5,3-9,4-13,5-2,0-4,1-6,2-6,2-9,4-9,4l-4,3v-5c-1-3-2-6-4-9-1-3-3-5-4-7v0c-1-2-3-5-5-9-2-3-3-8-3-13s2-9,3-12v0c-1,0-3,0-4,1-5,2-6,5-6,5l-3,5-2-5c-1-2-2-4-4-6-2-1-4-2-6-2c0,1-1,3-1,5c0,4,3,6,3,6l3,5h-5c-3,0-5,0-6,1-2,1-4,2-5,3v1c1,0,1,0,2,0c2,0,5,1,8,2s7,3,9,6c4,2,6,5,8,7v2c3,4,7,9,7,17c0,4-1,7-4,9-2,3-5,5-9,6-3,1-6,1-9,1-3-1-5-2-8-5-2-2-4-5-5-8c0-3,0-6,1-9c1-1,2-3,3-4-1,0-2,0-3,0-3,1-6,1-8,3-2,1-4,4-6,6-1,2-2,5-2,7c0,6,3,11,3,11l1,2-2,1c-1,2-3,5-5,8s-3,7-3,9s0,3,1,4c1-1,2-2,4-4v0c2-1,4-3,6-4s5-3,7-3c1-1,3-2,4-2c2,0,3-1,4-1c2,0,5-1,8-1s6,0,10,0c3,1,6,1,8,2c3,1,5,2,7,2v1c3,1,8,3,13,8c3,3,5,5,6,8c2,2,3,4,4,7c2,2,3,6,4,10c0,3,1,6,1,10s-1,8-1,11c1-1,2-1,3-2c2-2,4-4,6-7c3-6,4-10,4-12v-1-2h2c0,0,4-1,9-4c2-2,3-4,4-6c2-2,3-5,3-7v0c0-2,1-5,0-8c0-2-1-4-2-6-1-1-2-2-3-3Zm-5,1c0-2,0-4,0-5l-2-6l5,2c0,0,5,2,9,8c2,3,3,6,3,8c1,4,1,7,0,10c0,3-1,6-3,9-2,2-4,5-6,7-4,2-7,4-9,4c0,3-1,7-5,13-2,4-5,7-7,9-4,3-8,4-10,3h-3l1-3c0,0,2-6,2-13c0-4-1-7-1-9-1-4-2-7-3-9s-2-4-4-7c-1-2-3-4-6-6-4-4-8-6-11-8v0c-2-1-4-2-6-2-3-1-5-1-8-2-3,0-6,0-9,0-2,0-5,1-7,1-1,0-2,1-3,1-2,0-3,1-4,1-2,1-4,2-6,3s-4,3-6,4c-4,4-6,6-6,6l-1,2-2-2c0,0-4-4-4-10c0-3,1-7,3-11c2-3,4-6,5-8-1-3-2-7-2-12c0-3,1-7,3-10s4-6,7-8s7-3,10-3c4,0,8,0,10,1l6,3-5,2c0,0-4,2-5,5-1,2-1,4-1,6c1,2,2,4,4,6c1,1,3,2,5,3c2,0,4,0,7-1c2,0,5-2,6-4c2-2,3-4,3-6c0-6-4-11-6-15l-1-1c-1-2-3-4-6-6-2-2-5-4-8-5-2-1-5-1-6-2-3,0-5,0-6,0l-5,2l2-5c0,0,0-2,3-6c2-2,4-3,6-5c2,0,3-1,4-1c0-2-1-4-1-6c0-6,2-10,2-10l1-2l2,1c4,1,7,2,10,4c1,1,3,3,4,4c1-1,3-3,6-4c2-1,4-1,6-1c3-1,5,0,6,0l4,2-3,3c0,0-5,4-5,12c0,4,1,8,3,11c1,4,3,6,4,8c2,2,3,5,5,8c1,2,2,4,3,7c2-1,4-2,7-3c2-1,5-2,7-2c3-1,7-2,11-4s6-4,8-6s3-5,4-7c2-4,1-8,1-8v-5l4,2c4,2,7,5,8,8c2,3,2,5,2,8c2,0,4-1,6-1c4,0,7,1,10,3l2,1v2c-1,4-3,7-5,10-2,2-3,3-6,5c2,2,3,5,3,8c1,4,0,8-1,12l-2,6-3-6c0,0-2-3-7-6-3-2-6-3-9-3-2,0-5,0-7,0-3,0-7,1-10,2s-6,2-8,4-4,3-5,5-1,4-1,5c0,3,0,5,2,8c1,2,2,3,5,5c2,1,4,1,6,1c3-1,6-2,7-4c1-1,2-3,3-5Z" clip-rule="evenodd" fill="#fefefe"/><path d="M1763,1043c0,2,0,6-5,10-4,4-11,5-16,2s-8-8-8-14s5-12,10-15c4-4,12-9,23-9c10,0,15,6,15,6c1-8-1-15-8-19c6-3,8-9,8-17-6-1-12-1-17,5-1-8-6-14-13-15c0,0,2,7,0,14-4,11-11,16-20,20-7,5-12,10-12,10-1-1-2-3-4-6-2-2-5-5-9-9-6-4-9-9-11-13s-2-7-2-9c0-5,1-8,2-10-6-1-13,4-15,11-3-4-8-6-16-6-1,7,1,12,5,16-7,2-11,7-12,14c3-1,8-2,11-2c5,0,14,1,21,8c5,4,9,8,10,12c1,2,2,4,2,6s-1,5-3,8c-3,3-7,6-13,6-4,0-8-2-10-4-3-3-4-6-4-9c0-4,3-8,4-9-3-1-9,0-13,3-5,4-9,10-9,16c0,3,1,6,2,8c2,4,4,6,5,7-2,3-4,9-4,15c0,7,2,11,5,13c2-4,6-12,16-19s24-10,36-8c13,2,21,9,25,13s9,11,11,19c3,8,2,15,2,15c6-1,11-9,12-17c1-5,1-10,0-12c0,0,2-1,7-5c4-4,6-10,6-16c0-5-1-12-6-16-5-5-10-5-10-5c2,2,2,5,2,7Z" clip-rule="evenodd" fill="#fbbc00"/><path d="M1766,1043c0,1-1,3-1,5-1,2-2,5-5,7-2,3-6,4-9,5-3,0-7-1-10-3-3-1-5-4-7-7-1-2-2-6-3-9c0-3,1-7,3-9c2-4,5-7,8-9h1c5-3,13-8,24-8c5,0,10,1,13,3c0-2-1-4-1-5-2-3-4-5-6-7l-4-2l4-2c2-2,4-4,5-6s1-4,1-7c-2,0-3,0-5,0-2,1-5,2-7,4l-4,4-1-5c0-4-1-7-3-9-1-1-2-2-4-2c1,3,1,7-1,11-2,6-5,10-8,14-4,3-8,5-13,8-7,4-11,9-11,9l-3,3-2-4c0,0,0-1-1-2c0-1-1-2-2-3s-2-2-3-4c-2-1-4-3-6-5-3-2-5-4-7-7-2-2-4-5-5-7s-1-4-1-6c-1-2-1-3-1-4c0-2,0-4,1-6v-1c-1,0-2,1-4,2s-4,4-4,7l-2,4-3-3c-1-2-3-3-6-4-1-1-3-1-6-2c0,2,0,4,1,6s2,4,4,6l4,3-5,1c-3,1-5,3-7,5-1,1-1,2-2,3v0c3-1,5-1,7-1c3,0,8,1,12,2c4,2,8,4,11,7c3,2,5,4,7,6c1,2,3,4,4,6c0,2,1,3,1,4s0,2,0,4c0,1,0,3-1,5c0,1-1,3-2,4v0c-2,2-4,4-7,6-2,1-5,2-8,2-2,0-4-1-6-2-3-1-4-2-6-4-2-1-3-3-3-4-1-2-1-4-1-6s0-4,1-6v0c0,0-1,0-1,0-2,0-4,1-6,3-2,1-4,3-5,6-1,2-2,5-2,7v0c0,2,0,3,0,4c1,1,1,2,1,3h1c0,2,1,3,2,4s2,2,2,3l2,1-2,2c-1,1-2,3-3,6c0,2-1,5-1,7c0,3,1,5,1,7c1,1,1,1,1,2c1-2,3-4,4-6c3-4,6-7,12-11c5-4,11-6,18-8c6-1,13-2,20-1s12,4,16,6c5,3,8,6,10,8s5,6,7,10c2,3,4,6,5,10c1,5,2,9,2,12c1-1,2-2,3-3c2-3,3-7,4-10c0-2,0-4,0-6s0-4,0-5l-1-2l2-1c0,0,2-1,6-5c2-1,3-3,4-6c1-2,2-5,2-8c0-2-1-5-2-8-1-2-2-5-4-6-1-2-3-3-4-3c0,1,1,2,1,3v0Zm-6,4c0-2,0-3,0-4s0-2,0-3-1-2-1-3l-3-4h5c0,0,6,1,12,6c2,2,4,5,5,8s2,7,2,10c0,4-1,7-2,10s-3,6-6,8c-2,2-4,3-5,4c0,2,1,3,1,5s-1,4-1,7c-1,4-3,9-5,12-3,3-6,6-9,6l-4,1l1-4c0,0,0-5-2-13-1-4-3-7-4-10-2-3-5-6-7-8s-4-5-8-7-9-5-15-6-12,0-18,1-12,4-16,7c-5,4-8,7-11,10-2,3-3,6-4,8l-2,3-2-2c-2-1-4-3-5-6-1-2-2-5-2-9c0-3,1-6,1-8c1-3,2-5,3-6c0-1-1-1-1-2-1-1-2-3-3-5-1-1-1-2-2-4c0-1,0-3,0-5c0-3,1-6,2-9c2-4,4-7,7-9c2-1,5-2,8-3s6-1,8-1l5,1-4,4c-1,0-2,1-2,3-1,1-1,3-1,4s0,2,1,4c0,1,1,2,2,3s2,2,4,3c1,0,3,1,4,1c2,0,4-1,6-2s4-2,5-4c1-1,1-2,1-3c1-1,1-2,1-3s0-2,0-3-1-2-1-2v0c-1-2-2-4-3-5-2-2-4-4-6-6-3-3-6-5-9-6-4-1-8-2-11-2-2,0-4,1-6,1-1,0-2,1-3,1l-4,3v-5c0-4,2-8,4-11c2-2,3-3,6-4-2-2-3-4-3-5-1-4-1-7,0-11v-2h2c4,0,7,1,10,2c2,1,4,2,5,3c1-3,3-5,5-6c4-3,7-4,11-4h5l-3,4c0,1-1,2-1,4-1,1-1,3-1,4v1c0,1,0,2,1,3c0,2,0,3,1,5s2,4,4,6s4,4,6,6c3,2,5,4,6,6c2,1,3,3,4,4s2,2,2,3c3-2,6-5,11-8c4-2,8-4,11-7s6-7,8-11c2-7-1-13-1-13l-1-4h4c4,1,8,3,11,6c1,2,3,4,4,7c2-1,4-2,6-3c3,0,6,0,9,0l2,1v2c1,4,0,8-1,11-1,2-3,4-5,6c3,2,4,4,5,6c2,4,3,9,2,13l-1,6-3-4c0,0-5-5-14-5-10,0-17,4-21,7l-1,1c-2,1-5,4-6,6-2,2-2,5-2,7s1,5,2,7s3,4,5,5s4,2,6,1c3,0,5-1,7-2c2-2,2-4,3-5Z" clip-rule="evenodd" fill="#fefefe"/><path d="M1654,815c3-3,9-7,18-7c8,0,16,4,21,7c6,4,9,9,9,14s-3,10-6,13c-4,2-10,4-15,1s-7-7-7-11s1-7,1-7-7,1-11,6-7,12-4,19c2,8,10,12,10,12s-3,8,0,17c2,9,8,10,8,10c2-10,7-20,15-27c8-8,19-12,24-13s16-2,27,3c12,5,19,16,22,20c2,5,4,12,4,12c5-2,8-10,8-17-1-8-2-12-4-14c4-3,6-8,7-12c1-3,2-9-1-15s-7-10-12-12c-4-1-7-1-8-1c2,2,4,6,4,11c0,4-1,7-4,10-2,2-10,5-16,2-6-4-9-9-9-15c0-5,3-10,3-10c6-9,14-15,25-18c6-1,11,0,14,2-1-8-5-14-13-16c4-5,6-11,3-18-7,0-12,3-15,8c0,0-2-5-7-8s-9-2-9-2c3,4,5,13,2,21-2,7-5,11-12,17-7,7-9,13-9,13-3-2-6-5-9-7-5-3-10-4-14-7-3-2-5-4-7-6-8-9-6-18-6-20-5,1-11,8-11,15-4-3-10-4-18-2c1,7,4,12,10,14-6,3-7,8-8,12c0,3,0,6,0,6Z" clip-rule="evenodd" fill="#fbbc00"/><path d="M1656,810c2-1,3-2,5-2c3-2,7-2,11-2s8,1,11,2c5,1,9,3,12,5s5,5,7,7c2,3,3,6,3,9s-1,6-2,8c-2,3-4,5-6,7-2,1-5,3-8,3s-6,0-9-2c-3-1-5-3-7-5-1-3-2-6-2-8c0-1,0-2,0-3c0,0-1,0-1,1-2,0-3,2-4,3-2,2-4,5-4,8-1,3-1,6,0,9c2,6,9,10,9,10l2,1-1,2c0,0-2,7,0,15c1,4,3,6,4,7c1-4,3-8,5-12c3-5,6-9,10-13s8-6,12-8c5-3,10-4,13-5v0c3-1,7-1,12-1s11,1,17,4c5,2,9,5,13,8c5,5,8,10,10,13s3,6,4,9c0-1,1-2,1-3c2-3,2-7,2-10c0-4,0-6-1-8s-1-4-2-5l-1-2l2-1c1-1,2-3,3-5c2-2,2-4,3-5c0-2,1-4,1-6-1-2-1-5-2-8-1-2-3-5-5-6-1-2-3-4-6-4c0-1-1-1-2-1l1,1c0,2,1,4,1,7c0,2-1,4-1,6-1,2-3,4-4,5-2,2-5,4-9,5-4,0-7,0-10-2-4-2-6-5-8-7-2-3-3-6-3-10c0-6,4-11,4-11c3-5,7-9,11-12c4-4,9-6,15-7v0c4-1,7-1,9-1c1,1,2,1,3,1-1-2-2-4-3-5-2-2-4-4-7-4l-5-1l3-4c2-2,3-4,4-6c0-3,0-5-1-8-2,1-4,1-5,2-2,2-4,3-6,6l-2,4c-1-1-2-3-2-5-1-1-2-5-6-7-2-1-3-1-4-2c1,3,2,5,2,8c1,4,0,8-1,12-2,4-3,6-5,9s-5,6-8,9c-7,6-9,12-9,12l-2,4-2-3c-1-1-3-3-4-4s-3-2-4-3c-2-1-5-2-7-3s-5-2-7-4c-2-1-3-2-4-3-2-1-3-2-4-3-5-5-6-10-7-14c0-1,0-3,0-4-1,1-2,2-3,3-2,2-3,5-3,8v5l-4-3c-2-1-4-2-6-2s-4,0-7,0c1,2,1,4,2,6c1,1,3,3,6,4l4,2-4,3c-2,1-3,2-4,3-2,2-2,4-2,6l-1,1Zm7,2c-3,1-6,3-7,4l-3,4-1-5c0,0-1-3-1-7c1-2,2-5,3-7c1-1,2-2,3-3-2-2-3-3-4-5-2-2-3-6-3-10v-2h2c4-1,8-1,11-1c1,0,3,1,5,1c0-2,1-5,3-7c3-3,6-6,10-6l4-1-1,4c-1,1-1,3-1,6c1,4,2,7,6,11v0c1,1,2,2,3,3s2,2,3,3c3,1,5,2,8,3c2,1,4,3,6,4v0c2,1,4,2,5,3s1,1,2,2c1-3,4-7,8-11c3-3,6-5,8-8c1-2,3-5,4-8s1-7,1-10c-1-3-2-7-3-9l-3-3l4-1c0,0,5-1,11,3c3,1,5,4,7,6c1-2,2-3,4-4c3-2,6-3,10-3h2l1,2c1,4,1,8,1,12-1,2-1,4-3,6c3,1,5,3,7,5c2,3,4,7,5,12l1,5-5-3c-1-1-3-1-5-1-3-1-5-1-8,0-5,1-9,3-13,6s-7,7-10,11c0,0-3,4-3,8c0,3,1,5,3,7c1,2,3,4,5,5c2,2,5,2,7,2c3-1,5-2,6-3s2-3,3-4c0-1,1-3,1-4c0-2-1-4-1-5-1-2-2-3-3-4l-5-4h7c1-1,4-1,9,1v0c3,1,6,3,8,5s4,5,5,8c2,4,3,7,3,10s-1,5-1,7c-1,2-2,5-3,7s-2,3-3,4c0,1,1,3,1,4c1,3,1,6,1,10c1,4,0,8-2,12-1,3-4,6-7,7l-2,1-1-3c0,0-2-6-4-10-2-3-5-8-10-12-3-3-7-5-11-7-5-3-11-4-15-4s-8,0-11,1-7,2-12,4c-3,2-7,4-10,7-4,4-7,8-9,12-3,5-4,9-5,14l-1,3-2-1c0,0-8-1-11-12-2-7-1-13,0-16-3-2-8-6-10-12-1-4-1-7,0-11s2-7,5-10c1-2,3-4,5-5c4-2,8-3,8-3h6l-3,4c-1,0-1,1-1,2-1,1-1,2-1,4c0,1,1,3,2,5c0,1,2,2,4,4c2,1,4,1,6,1c2-1,5-1,6-2c2-2,3-3,4-6c1-1,2-3,2-5s-1-4-2-6c-2-2-4-4-6-6-3-1-6-3-10-4-3-1-7-2-10-2-4,0-7,1-9,1Z" clip-rule="evenodd" fill="#fefefe"/><path d="M521,287c20-12,41-24,61-34l19,7c-17,9-35,18-52,28-3,2-18,11-26,16-18,12-33,19-48,17-10-1-15-6-19-11-3-6-3-12-1-16c1-2,2-3,3-4-10,9-17,18-26,28-10,6-20,11-29,17c2-1,4-2,5-2c7-2,14,0,20,1c9,2,16,5,28,5c10,0,21-3,21-3s-12,10-21,17c-4,3-12,10-21,15-7,4-15,8-22,9-14,2-23-5-27-11-3-5-3-12,2-18-9,10-15,21-23,31-9,8-20,14-27,20c0,0,1,0,1,0c7-4,13-5,25-3s17,2,28,1c12-2,20-5,20-5-3,3-9,9-16,16-9,9-19,18-23,21-5,4-16,12-29,12s-18-8-20-11-3-9-1-14c1-1,1-1,1-2-7,11-13,24-18,34-8,8-17,14-25,23c3-3,8-5,13-6c13-2,22,2,38-2c15-4,21-8,21-8-9,11-13,18-22,29-6,7-11,12-14,15-11,9-17,12-28,13-8,1-18-5-21-13-1-4,0-8,1-11v0c-5,8-10,21-15,35-7,9-13,14-22,26c1-1,2-2,3-2c6-5,12-6,23-8c10-1,18-1,29-6c12-5,16-8,16-8s-12,18-19,30c-7,11-17,23-27,30-10,6-22,5-30-1-6-6-6-13-5-17-4,9-6,23-10,37-5,8-13,18-19,28c2-2,3-4,5-5c7-5,17-7,23-8c6-2,15-4,26-10c9-5,13-9,13-9s-4,9-7,16c-4,8-13,29-21,39-9,10-19,18-32,15-12-3-15-11-15-19c0,0,0,0,0,0v0c-2,10-4,23-6,37-4,10-11,20-15,31c5-8,13-12,23-16c11-3,24-8,40-24c0,0-6,19-9,27-3,9-6,19-13,30-6,11-16,20-28,20s-17-7-18-14c-1-1-1-2-1-3v0c-1,6-1,15-1,22s0,11,0,16c0,2-4,6-7,8-2,2-10,7-10,7c0-1-3-4-6-9-4-6-4-10-4-12c1-2,3-7,7-17c5-10,8-19,8-19v0c0,0,0,0,0,0-1,3-4,6-6,7-3,3-7,3-10,3-4,0-8-2-10-3-9-5-14-15-14-32s5-32,9-43c3-10,8-25,8-25s0,6,3,19c2,7,4,12,7,18c4,6,8,12,12,17c4,7,6,13,6,18c2-12,2-24,4-34c5-11,13-23,19-34-1,0-1,1-1,1-3,4-9,9-18,7-9-3-15-9-17-18-3-10-1-24,2-35c4-12,10-25,13-33c4-8,9-17,9-17s-1,8,0,15s3,20,8,29c6,9,11,18,11,28c0,1,0,2,0,3c3-12,5-25,7-34c5-7,15-19,23-32c0,1-1,2-2,2-5,5-12,7-19,3-7-3-11-9-13-16-1-6-1-12,1-23c3-11,8-22,13-30s18-30,19-31c0,1-2,11-1,16c0,5,0,13,3,23c3,9,7,17,8,23s2,10,1,14c4-9,7-22,11-32c6-8,19-20,26-29-1,1-2,2-3,3-2,1-4,2-7,2-4,1-8,0-11-2-10-7-13-16-10-30c1-7,4-16,9-24c5-9,10-16,14-21c7-9,11-15,19-23-1,0-5,13-5,26c0,14,3,20,6,32c2,7,2,12,1,17-1,1-1,2-1,2c5-9,9-20,15-30c9-9,22-18,30-26-1,0-1,0-1,0-7,4-14,5-21,0-9-7-10-17-7-30c2-8,9-20,16-29c5-6,11-12,14-15c9-9,16-16,20-20c0,0-4,8-7,23-2,9-1,16,0,22c0,5,1,9,2,15c1,7-1,13-3,17v0c7-10,13-21,19-29c5-4,22-14,32-22-1,1-3,2-4,2-2,1-5,1-8,1-4-1-8-3-11-7s-5-8-5-16s5-19,12-28c8-10,19-20,27-26c9-7,18-14,21-16c0,0-5,6-9,21-3,9-3,18-3,27c0,6,1,12-1,18c0,3-2,6-3,9c8-9,17-21,21-26c9-5,27-14,35-18-6,2-12,2-17-1s-8-10-9-17c-1-18,18-36,33-47c14-9,35-21,35-21c15-10,48-27,61-33-3,6-5,13-8,21-22,11-45,24-67,38-1,2-1,4-2,7c0,1,0,3-1,5c18-11,38-23,66-38l-7,21c-23,13-45,26-61,37v0c0,1,0,3-1,4-1,4-2,7-5,10c21-14,42-27,64-39l-3,10l10,3c-21,12-41,25-62,39v0c2-1,4-1,6-1c3,0,6,0,10,1v0c19-13,39-25,58-36l20,7c-21,11-42,23-60,35c3,1,7,3,11,3v0Z" clip-rule="evenodd" fill="#fbbc00"/><path d="M490,289c-5-1-13,3-11,8c2,4,6,6,14,4c7-1,20-2,20-2s-9,5-16,8c-7,2-18,7-26,3-8-3-7-11-6-14c2-6,10-9,15-9s10,2,10,2Z" clip-rule="evenodd" fill="#fefefe"/><path d="M455,235c-5,8-10,16-5,21s12-5,12-8c0,3,0,6-1,10-2,3-4,7-8,9-9,6-19,2-19-8c0-7,7-16,13-22c5-6,16-14,16-14s-5,7-8,12Z" clip-rule="evenodd" fill="#fefefe"/><path d="M442,293l-15,18-21,11c5-6,10-13,15-18c5-3,13-7,21-11Z" clip-rule="evenodd" fill="#fefefe"/><path d="M410,354c4,4,9,3,18,0c9-2,14-3,14-3-2,2-8,6-14,9-6,4-12,6-16,7-3,1-8,1-11-1-4-1-6-5-6-8c0-4,1-8,4-11c4-3,8-4,12-4s8,1,8,1-2,0-6,1c-2,1-4,3-4,4-1,2-1,4,1,5Z" clip-rule="evenodd" fill="#fefefe"/><path d="M386,317c-1,6-7,11-13,13-5,1-12-2-13-8s3-16,9-24c6-7,11-13,15-17c0,1-7,15-9,21-3,7-3,12,1,14c3,2,5,0,7-3c3-2,3-5,4-7c0,1,0,5-1,11Z" clip-rule="evenodd" fill="#fefefe"/><polygon points="372,354 359,373 340,386 352,367" clip-rule="evenodd" fill="#fefefe"/><path d="M306,382c3,4,7,3,9-1c3-3,3-8,3-8c2,7,2,13-2,18-3,5-7,8-12,8s-11-4-11-12s6-18,10-25s10-13,10-13-4,13-5,16c-1,2-5,13-2,17Z" clip-rule="evenodd" fill="#fefefe"/><path d="M348,418c3,3,7,2,16-2c5-2,15-5,15-5-3,4-16,14-27,19-11,4-16-1-17-2-2-2-5-10,1-16c5-6,11-6,14-6s5,0,5,0c-2,1-5,2-7,4-3,2-4,6,0,8Z" clip-rule="evenodd" fill="#fefefe"/><path d="M309,422c-4,7-7,14-11,21l-17,15c4-8,8-16,10-21c6-6,12-11,18-15Z" clip-rule="evenodd" fill="#fefefe"/><path d="M235,461c0-9,4-18,7-24s8-13,8-14c0,1-4,19-4,24-1,5-1,10,4,12c4,1,6-3,8-6c1-4,0-6,0-6s1,2,2,7c1,4,0,9-3,13-2,4-6,7-11,7-6,0-11-3-11-13Z" clip-rule="evenodd" fill="#fefefe"/><path d="M292,488c4,4,10,1,15-2c6-3,15-8,16-9-4,6-14,15-18,18-4,4-12,9-19,7-8-2-9-9-8-13s4-8,9-11c5-2,12-2,12-2s-3,1-6,3c-2,2-6,6-1,9Z" clip-rule="evenodd" fill="#fefefe"/><path d="M255,497c-3,7-6,14-8,21l-16,18l8-22c4-5,10-11,16-17Z" clip-rule="evenodd" fill="#fefefe"/><path d="M195,519c0,7-1,13,1,18c2,4,7,4,9,2c2-3,3-8,2-12c1,1,4,7,4,13c0,5-4,12-9,15s-11,2-14-4c-3-5-2-13-1-20s7-21,10-26c0,0-1,7-2,14Z" clip-rule="evenodd" fill="#fefefe"/><path d="M209,577c-2,8-3,16-5,23l-13,19c1-8,3-16,5-23c4-6,8-12,13-19Z" clip-rule="evenodd" fill="#fefefe"/><path d="M246,555c-3,3-5,7,0,10c5,2,11-2,15-5c5-3,14-10,14-10-3,5-10,15-15,19-5,5-11,10-18,10-6,0-10-5-10-11s4-12,9-14c6-2,10-2,10-2s-3,0-5,3Z" clip-rule="evenodd" fill="#fefefe"/><path d="M195,647c1-6,5-10,9-12s8-3,8-3-2,2-4,4c-2,1-5,6-1,9c5,3,10-1,14-4s14-12,15-13c-3,7-11,20-18,26-6,7-13,8-17,6-5-2-7-7-6-13Z" clip-rule="evenodd" fill="#fefefe"/><path d="M147,610c3-11,6-18,6-18s0,24,2,30c2,5,8,7,10,2c3-6,1-11,1-11s5,7,5,14c0,8-5,14-10,16s-11-1-13-7-3-14-1-26Z" clip-rule="evenodd" fill="#fefefe"/><polygon points="174,663 171,686 160,706 162,683" clip-rule="evenodd" fill="#fefefe"/><path d="M121,731c-6-6-6-22-5-29c0-7,3-18,3-18s2,15,4,23c1,7,4,12,9,10c6-1,4-12,3-14c0,0,4,5,5,10c2,5,1,12-2,16s-10,8-17,2Z" clip-rule="evenodd" fill="#fefefe"/><path d="M178,723c-2,3-1,6,2,8c3,1,7-1,11-4c3-4,15-17,15-17s-2,7-6,14c-5,9-8,16-15,20s-14,2-16-4c-3-5-1-13,3-17s11-6,11-6c-2,2-4,3-5,6Z" clip-rule="evenodd" fill="#fefefe"/><path d="M79,920c-3,5-4,9-4,11v0c0,0,0-2-1-4-2-2-4-3-5-4s-2-3-2-6c1-2,3-6,7-10c3-4,9-7,14-8c3,0,5,0,7,0c0,0-1-6,1-11s4-10,10-15c5-6,13-9,22-9c10,0,18,4,24,10c6,5,9,12,10,18c2,5,1,9,1,9c5,0,11,2,18,7s9,11,9,11c0,2,0,2-2,4-1,2-3,2-4,4-2,1-2,3-2,3v0c-1-2-2-7-6-11s-10-4-13-4-7,0-10,3c-4,3-5,7-5,9c0,4,2,6,4,8c2,3,5,4,5,4v-1c0-1-1-4,0-6s3-4,7-4s8,3,8,8c0,6-4,9-9,11-5,1-12,2-20-3-7-5-8-13-8-16c0-4,0-10,5-16c4-6,12-9,12-9-5-3-10-3-15-1c1-7-2-15-7-19-6,3-10,11-9,18-6-3-11-2-15,1c5,2,16,9,16,25c0,6-1,9-4,13-3,5-10,9-18,9-11,0-15-6-15-12s4-9,8-9c3,0,8,2,8,7c0,2-1,4-1,4v0c0,0,8-2,8-12s-9-14-15-14-11,3-14,7Z" clip-rule="evenodd" fill="#fefefe"/><path d="M101,1149c-4-1-6-3-7-6c0,0,1-4,3-10c3-5,7-9,10-11s6-3,9-4c0,0-1-5-1-10c0-6,1-13,6-20s12-10,18-12s14-2,21,0c6,3,12,6,16,12c5,6,6,12,7,15c0,0,3-1,8-1c4,0,10,1,15,4s8,6,8,6s0,1,0,2c0,2-1,3-2,5-2,1-2,2-3,3-1,2,0,3,0,3l-1,1c0,0,0-2-2-5-2-2-5-5-9-6s-9-1-14,1c-4,3-8,7-8,12s3,9,6,11c3,1,6,1,6,1v0c0,0-2-2-2-5s2-6,6-7c3-1,6,0,8,2s3,6,2,9c-1,4-5,7-9,9s-9,3-14,2-10-4-13-9-4-10-3-13c0-3,0-6,2-11s6-7,9-10c-5-2-10-1-15,3-1-7-6-14-12-16-5,6-6,13-4,19-7-1-11,2-14,5c0,0,7,1,14,7c6,5,8,12,8,14c1,2,2,7,0,12-2,4-4,9-10,12-5,3-11,4-15,3-4-2-7-4-8-8-2-5,1-9,4-11c2-1,6-1,8,1s3,4,3,8v0c0,0,5-4,5-11s-6-13-14-13c-4,0-8,2-11,4-2,1-3,3-4,4-1,3-3,8-2,14h-1c0,0,0-3-4-5Z" clip-rule="evenodd" fill="#fefefe"/><path d="M188,1358c-4,0-6-1-8-4c0,0-1-4,0-10c1-7,4-11,7-14c2-3,5-5,8-6c0,0-3-4-4-9-2-6-2-13,1-21s8-13,14-17c5-3,13-5,20-5c6,1,13,3,19,7c7,5,9,10,10,13c0,0,3-2,7-3c5-2,11-2,17,0c5,2,8,4,8,4s1,1,1,1c0,2,0,4-1,6-1,1-1,2-2,4c0,2,1,2,1,3v0c0,0-1-2-4-3-2-2-6-4-10-4s-9,1-13,5c-4,3-6,9-5,13c2,5,6,8,9,9c3,0,6,0,6,0v-1c0,0-3-1-4-4c0-3,1-6,4-8s6-2,9,0c2,2,4,5,4,8c0,4-3,8-6,11-4,3-8,5-13,5-5,1-11-1-15-5-4-3-6-9-7-11-1-3-1-7,0-12s3-8,5-11c-5-1-9,1-13,6-3-7-9-12-16-12-4,7-3,14,1,20-7,1-10,4-12,8c0,0,7-1,15,2c8,4,11,11,12,12c1,2,3,7,3,12-1,4-2,10-7,14-4,5-10,7-14,6-4,0-7-1-10-5-2-4-1-9,1-11c3-2,6-3,9-2c2,1,4,4,4,7h1c0,0,4-4,2-11-1-7-9-12-17-10-4,2-8,4-10,7-1,2-2,4-2,5-1,3-1,8,1,14h-1c0,0-1-3-5-3Z" clip-rule="evenodd" fill="#fefefe"/><path d="M101,935c0-5-5-7-8-7-4,0-8,3-8,9s4,12,15,12c8,0,15-4,18-9c3-4,4-7,4-13c0-16-11-23-16-25c4-3,9-4,15-1-1-7,3-15,9-18c5,4,8,12,7,19c5-2,10-2,15,1c0,0-8,3-12,9-5,6-5,12-5,16c0,3,1,11,8,16c8,5,15,4,20,3c5-2,9-5,9-11c0-5-4-8-8-8s-6,2-7,4s0,5,0,6v1c0,0-3-1-5-4-2-2-4-4-4-8c0-2,1-6,5-9c3-3,7-3,10-3s9,0,13,4s5,9,6,11v0c0,0,0-2,2-3c1-2,3-2,4-4c2-2,2-2,2-4c0,0,1,3,2,6c0,3,0,8-1,12s-3,9-6,12-8,8-15,9c-4,1-6,1-9,1s-15,1-17,1c-3,0-6,1-7,4-2,2-1,5-1,7c1,2,2,3,3,4c1,2,3,3,4,6c1,2,1,4,0,6c0,2-1,4-4,8-3,3-6,7-7,8c0,0-2-2-5-4-3-3-6-5-8-8s-2-6-2-7c0-2,1-4,3-7c2-2,3-5,3-8s-1-5-2-5c-1-1-2-3-6-3s-11,1-18,1-9,0-13-2c-6-2-9-6-11-8s-6-8-7-13-1-8-1-10c0-1,0-8,2-12c0,3,1,5,2,6s3,2,5,4c1,2,1,4,1,4v0c0-2,1-6,4-11c3-4,8-7,14-7s15,4,15,14-8,12-8,12v0c0,0,1-2,1-4Z" clip-rule="evenodd" fill="#00a0e3"/><path d="M94,1143c1,3,3,5,7,6c4,2,4,5,4,5h1c-1-6,1-11,2-14c1-1,2-3,4-4c3-2,7-4,11-4c8,0,14,6,14,13s-5,11-5,11v0c0-4-1-6-3-8s-6-2-8-1c-3,2-6,6-4,11c1,4,4,6,8,8c4,1,10,0,15-3c6-3,8-8,10-12c2-5,1-10,0-12c0-2-2-9-8-14-7-6-14-7-14-7c3-3,7-6,14-5-2-6-1-13,4-19c6,2,11,9,12,16c5-4,10-5,15-3-3,3-7,5-9,10s-2,8-2,11c-1,3,0,8,3,13s8,8,13,9s10,0,14-2s8-5,9-9c1-3,0-7-2-9s-5-3-8-2c-4,1-6,4-6,7s2,5,2,5v0c0,0-3,0-6-1-3-2-6-6-6-11s4-9,8-12c5-2,10-2,14-1s7,4,9,6c2,3,2,5,2,5l1-1c0,0-1-1,0-3c1-1,1-2,3-3c1-2,2-3,2-5c0-1,0-2,0-2s6,7,6,17c0,11-6,18-9,22-3,3-7,5-11,7-4,1-14,4-17,5s-9,3-9,8c0,4,1,6,4,8c1,1,3,2,4,3c3,2,5,5,5,8s-1,7-4,11c-2,5-3,8-3,8-4-2-10-4-14-7-4-2-5-5-6-8c0-2,0-5,2-7c1-3,1-4,1-7-1-4-3-6-5-7-3-1-5,0-8,1s-14,4-17,5c-4,2-9,2-14,1s-8-3-13-7c-4-3-7-9-9-12-2-4-2-8-3-12c0-3,0-6,0-6Z" clip-rule="evenodd" fill="#00a0e3"/><path d="M263,1327c-3-1-7-4-9-9-1-4,1-10,5-13c4-4,9-5,13-5s8,2,10,4c3,1,4,3,4,3v0c0-1-1-1-1-3c1-2,1-3,2-4c1-2,1-4,1-6c0,0-1-1-1-1s8,5,10,15c3,10,0,19-2,23-2,3-5,7-9,9-4,3-12,8-15,10s-8,5-7,10c1,3,3,5,6,7c2,1,4,1,5,1c4,2,6,4,6,7c1,3,1,7,0,12s-1,8-1,8c-5-1-11-1-15-3-5-1-7-4-8-6-1-3-1-5-1-8c1-3,1-4-1-7-1-3-3-5-6-5s-5,1-7,3c-2,1-13,8-16,10s-7,4-13,4c-5,0-9-1-14-3-5-3-9-7-12-10-2-3-4-7-5-10-2-4-2-6-2-6c2,3,4,4,8,4s5,3,5,3h1c-2-6-2-11-1-14c0-1,1-3,2-5c2-3,6-5,10-7c8-2,16,3,17,10c2,7-2,11-2,11h-1c0-3-2-6-4-7-3-1-6,0-9,2-2,2-3,7-1,11c3,4,6,5,10,5c4,1,10-1,14-6c5-4,6-10,7-14c0-5-2-10-3-12-1-1-4-8-12-12-8-3-15-2-15-2c2-4,5-7,12-8-4-6-5-13-1-20c7,0,13,5,16,12c4-5,8-7,13-6-2,3-4,6-5,11s-1,9,0,12c1,2,3,8,7,11c4,4,10,6,15,5c5,0,9-2,13-5c3-3,6-7,6-11c0-3-2-6-4-8-3-2-6-2-9,0s-4,5-4,8c1,3,4,4,4,4v1c0,0-3,0-6,0Z" clip-rule="evenodd" fill="#00a0e3"/><path d="M333,1364c4,3,4,4,4,4-2,0-7,1-13,5-6,5-10,12-11,16-2,4-4,12-2,18c1,7,8,10,13,10c6,0,11-2,14-7c2-3,2-7,1-11c0-1-1-2-2-3-3-4-6-5-7-5c2-2,4-3,7-3c3-1,7-1,10,0c4,1,7,3,10,6c2,2,3,4,3,7c2,6,0,12,0,12c3,1,6,3,9,6c2,3,4,6,5,10c1,5,0,7-1,8c0,0-2-2-7-4-4-2-9-3-13-4-3,0-7,0-9,0-4,0-10,1-17,4-6,2-10,5-12,7-3,2-6,6-10,12s-5,11-6,15c-1,5-1,12,1,20c2,7,6,13,6,13-4,1-11,0-18-7-5-5-7-10-7-12c0,0-5,1-11-2-6-2-10-7-12-11s-3-10-2-16c2-6,6-9,6-9c0,4,3,10,7,12c4,3,11,4,16-1c6-6,6-12,4-17-1-4-3-8-9-10s-16-2-21-1-11,3-16,7c-5,5-6,10-6,10-4-7-6-14-2-21-7,0-12-4-15-11c4-4,10-6,16-4-2-6-2-14,5-19c0,0,0,4,3,8c3,5,8,9,16,11c9,1,13,0,20,1c6,0,11,2,11,2-1-7,1-15,3-19s4-13,2-22c-2-8-9-12-9-12c1-1,5-3,10-2s9,4,9,4c1-6,4-10,10-14c0,0,3,3,4,8c2,5,0,9,0,9c4-1,10-1,13,2Z" clip-rule="evenodd" fill="#fbbc00"/><path d="M332,1366v1c-1,0-1,0-2,0-2,1-5,2-7,4-3,3-6,5-8,8s-4,7-5,9-2,5-2,9c-1,3-1,7,0,11s3,6,6,8c3,3,7,4,10,4c4,0,7-1,9-2c3-2,5-4,7-6c1-2,2-5,2-7s0-4,0-6c-1-1-1-2-1-3-1-1-1-1-2-2s-2-3-3-3c0-1,1-1,2-1s3,0,4,0c2,0,3,0,5,0c1,1,3,2,4,3c2,0,3,1,4,3c1,1,1,1,2,2c0,1,1,2,1,4c1,5,0,10,0,10l-1,3h2c1,1,3,2,4,3s3,2,4,3s2,3,3,4c1,2,1,3,2,5c0,1,0,2,0,3-1,0-3-1-5-2s-5-2-7-3c-2,0-5-1-7-1-1,0-3,0-4,0-2-1-4-1-5-1v0c-2,1-6,1-9,2-3,0-6,1-9,2-3,2-6,3-8,5-2,1-4,2-5,3s-3,3-5,5c-1,2-3,4-5,7s-3,6-4,9-2,5-2,8c-1,3-1,6-1,10s1,7,2,10c1,5,2,8,4,11-1,0-3-1-4-1-2-1-5-3-8-5-4-5-6-9-7-11l-1-3-2,1c0,0-4,0-9-2-2-1-4-2-6-4s-3-4-4-6-2-5-3-7c0-3,0-5,1-7c0-2,1-3,2-4c0,1,0,1,1,2c1,3,3,5,6,7c2,1,6,2,10,2c3,0,6-2,9-4c3-3,4-6,5-9c1-4,1-7,0-10s-2-5-4-7-4-4-7-5-7-2-11-2-8,0-11,0v0c-3,1-6,1-9,3-3,1-6,3-9,6-2,1-3,3-4,5-1-1-1-3-2-5c0-3,0-6,2-8l2-4h-4c-3,0-5-1-7-3-2-1-4-3-5-5c2-1,3-2,5-3c3,0,5,0,8,0l5,2-2-5c-1-3-2-6-1-9c0-2,1-3,1-4c1,1,2,3,3,5c2,2,4,5,7,7s6,3,11,4s9,1,13,1c2,0,4,0,7,0c6,1,10,2,10,2l3,2v-4c0-4,0-7,1-10s2-6,2-8v0c1-2,2-6,3-10s1-9,0-13c-2-6-5-9-7-12v0c1,0,3,0,5,0c4,1,7,4,7,4l3,4l1-6c1-2,2-4,3-6c1-1,3-3,5-4c0,1,1,2,2,4c1,4-1,8-1,8l-2,5l5-2c2,0,5,0,7,0c1,0,3,1,5,2Zm8,2c0,0-1-3-5-6-2-2-5-3-8-3-1,0-2,0-4,0c1-2,1-4,0-7-2-5-5-8-5-9l-1-1-2,1c-3,2-6,4-8,7-1,1-2,3-3,5-2-1-4-2-7-3-2,0-4,0-6,0-3,1-5,2-6,3l-3,2l4,2c0,0,6,3,8,11c1,4,1,8,0,11-1,4-2,7-2,9-1,2-2,5-3,9-1,2-1,5-1,7-2,0-5-1-8-1-2,0-5,0-7,0-4,0-7,0-12-1-4-1-7-2-9-4-2-1-4-3-6-5-2-4-3-8-3-8v-4l-4,3c-4,3-6,6-6,10-1,2-1,5,0,8-2,0-4,0-6,0-3,1-6,3-9,5l-2,2l1,2c2,3,5,6,8,8c2,2,4,3,6,3-1,3-1,6-1,9c1,4,3,8,5,11l3,5l2-6c0,0,0-4,5-8c2-2,5-3,7-4c3-2,6-2,8-3c2,0,6,0,10,0c3,0,6,1,9,2c2,1,4,2,5,3c2,2,3,3,3,5c1,2,1,5,0,8c0,2-1,4-3,6s-4,3-6,3c-3,0-6-1-8-2-1-1-3-2-4-4s-1-4-1-6v-5l-4,3c0,0-5,3-7,10-1,3-1,6-1,9c1,3,2,7,3,9c1,3,3,5,6,8c2,2,4,3,7,5c4,1,8,2,10,2c1,2,3,6,8,11c3,3,6,6,9,7c5,1,8,1,11,0l2-1-1-3c0,0-3-5-5-12-1-3-2-6-2-9s0-7,1-9c0-2,1-5,1-7c1-3,2-5,4-8s4-5,5-7c2-1,3-3,4-4c2-1,3-2,5-3s4-3,7-4s6-2,8-2c3-1,6-1,8-1s3,0,5,0c1,0,2,0,3,0c2,0,5,1,7,1c2,1,4,2,6,2c5,3,7,4,7,4l2,2l2-3c0-1,2-4,1-10v0c-1-2-2-4-3-5-1-2-2-4-3-6-2-1-3-2-5-4-1,0-2-1-3-1c1-3,1-7,0-12c0-1-1-3-2-4c0-1-1-3-2-4-2-1-3-3-5-4s-4-2-6-3v0c-2,0-4,0-6-1-2,0-4,1-6,1-1,0-3,1-4,2-1,0-3,1-4,2l-4,3l5,1c1,0,2,1,3,1c1,1,2,2,3,3s1,1,1,2c0,0,1,1,1,1v0c0,1,0,3,0,4c0,2-1,3-2,5s-2,3-4,4-4,2-6,2c-3,0-6-1-8-3-2-1-3-3-4-6-1-2-1-6,0-8c0-3,1-6,2-8s2-5,4-8c2-2,4-5,7-6c2-2,4-3,6-4s4-1,5-1h4l-1-3Z" clip-rule="evenodd" fill="#fefefe"/><path d="M150,1251c-1,4,1,10,4,13c3,4,10,7,16,3c7-4,8-10,8-15c0-4-1-8-7-12-5-4-14-6-19-7-5,0-11,0-17,3-6,4-9,8-9,8-2-7-2-15,4-21-7-1-11-6-12-14c5-3,11-3,17,0-1-7,1-14,9-17c0,0-1,4,1,9s6,10,13,14c8,4,13,4,19,6s9,5,9,5c2-7,6-14,9-17c2-4,7-12,7-21s-5-14-5-14c1-1,5-2,10,0c5,3,7,7,7,7c3-5,7-9,14-11c0,0,2,4,2,9s-3,8-3,8c5,0,10,2,12,6c3,4,3,5,3,5-1-1-7-1-13,2-7,2-13,8-16,12-2,3-7,9-7,17c0,7,6,11,11,13c6,1,11,0,15-4c4-3,5-9,3-14-2-4-6-6-6-6c5-2,12-2,18,2c5,3,9,9,9,15c0,7-3,12-3,12c4,3,9,14,9,19s-3,8-3,8-2-2-6-6c-4-3-8-5-12-7-3-1-6-2-8-2-4-1-10-2-17-1s-11,2-14,4c-3,1-7,3-12,8-6,5-8,9-10,14-2,4-4,11-4,19c0,7,1,14,1,14-3,0-10-3-14-11-5-7-4-11-5-14c0,0-4-1-9-4-6-4-8-10-9-14-1-5-1-11,2-16c4-6,8-7,8-7Z" clip-rule="evenodd" fill="#fbbc00"/><path d="M147,1256c1,1,1,2,1,2c1,3,2,6,4,8s5,4,9,5s7,0,10-2c4-2,6-4,7-7c2-3,3-7,3-10c0-2-1-5-2-7-1-3-3-5-6-7s-6-4-9-5c-4-1-9-2-12-2-2-1-5-1-8,0-4,0-7,1-11,3-2,1-4,3-5,4-1-1-1-3-1-5c1-3,2-5,4-8l4-3-5-1c-2-1-5-2-6-4-2-2-3-4-3-6c2-1,4-2,6-2s4,1,7,2l4,3v-5c-1-3-1-7,1-9c1-2,1-3,2-4c1,2,1,4,2,6c1,3,2,5,5,8c2,3,5,5,9,7c5,3,9,4,12,5c3,0,5,1,7,2c6,2,9,4,9,4l3,3l1-5c1-3,2-6,3-9c2-3,3-5,5-7v0c1-2,3-5,5-9c2-3,3-8,3-13s-2-9-4-12h1c1,0,2,0,4,1c4,2,6,5,6,5l2,5l3-5c1-2,2-4,4-6c2-1,3-2,6-2c0,1,1,3,1,5c0,4-3,6-3,6l-3,5h5c2,0,4,0,6,1s3,2,4,3l1,1c-1,0-2,0-2,0-3,0-5,1-8,2-4,1-7,3-10,6-3,2-5,5-7,7l-1,2c-2,4-6,9-6,17c0,4,1,7,3,9c3,3,6,5,10,6c3,1,6,1,9,1c3-1,5-2,8-5c2-2,4-5,4-8c1-3,1-6,0-9-1-1-2-3-3-4c1,0,2,0,3,0c3,1,5,1,8,3c2,1,4,4,6,6c1,2,2,5,2,7c0,6-3,11-3,11l-1,2l2,1c1,2,3,5,5,8c1,3,3,7,3,9s-1,3-1,4c-1-1-3-2-4-4v0c-2-1-4-3-6-4-3-1-5-3-7-3-2-1-3-2-4-2-2,0-3-1-4-1-2,0-5-1-8-1s-7,0-10,0c-3,1-6,1-8,2-3,1-5,2-7,2l-1,1c-3,1-7,3-12,8-3,3-5,5-7,8-1,2-2,4-4,7-1,2-2,6-3,10-1,3-1,6-1,10s1,8,1,11c-1-1-2-1-3-2-2-2-4-4-6-7-4-6-4-10-4-12v-1-2h-2c0,0-4-1-9-4-2-2-4-4-5-6s-2-5-2-7v0c-1-2-1-5-1-8c1-2,1-4,3-6c1-1,2-2,2-3Zm6,1c-1-2-1-4,0-5l2-6-6,2c0,0-5,2-9,8-1,3-2,6-3,8c0,4,0,7,1,10c0,3,1,6,3,9c1,2,3,5,6,7c4,2,7,4,9,4c0,3,1,7,4,13c3,4,5,7,8,9c4,3,7,4,10,3h3l-1-3c0,0-2-6-2-13c0-4,1-7,1-9c1-4,2-7,3-9s2-4,4-7c1-2,3-4,5-6c5-4,9-6,12-8v0c2-1,4-2,6-2c2-1,5-1,7-2c4,0,7,0,9,0c3,0,6,1,8,1c1,0,2,1,3,1s3,1,4,1c2,1,4,2,6,3s4,3,5,4c5,4,6,6,6,6l2,2l2-2c0,0,4-4,4-10c0-3-2-7-4-11-1-3-3-6-5-8c1-3,3-7,3-12c0-3-1-7-3-10s-5-6-8-8-6-3-9-3c-4,0-8,0-11,1l-5,3l5,2c0,0,3,2,5,5c1,2,1,4,0,6c0,2-1,4-3,6-2,1-4,2-6,3-2,0-4,0-6-1-3,0-5-2-7-4-1-2-2-4-2-6c0-6,3-11,6-15v-1c2-2,4-4,7-6c2-2,5-4,7-5c3-1,5-1,7-2c3,0,5,0,6,0l4,2-1-5c0,0,0-2-3-6-2-2-4-3-7-5-1,0-2-1-4-1c1-2,2-4,2-6c0-6-3-10-3-10l-1-2-2,1c-3,1-6,2-9,4-2,1-3,3-4,4-1-1-3-3-6-4-2-1-4-1-6-1-3-1-5,0-6,0l-4,2l3,3c0,0,5,4,5,12c0,4-1,8-3,11-1,4-3,6-4,8-2,2-4,5-5,8-1,2-2,4-3,7-2-1-4-2-7-3s-5-2-7-2c-4-1-7-2-12-4-3-2-5-4-7-6s-3-5-4-7c-2-4-1-8-1-8v-5l-4,2c-4,2-7,5-9,8-1,3-2,5-2,8-2,0-4-1-5-1-4,0-7,1-11,3l-1,1v2c1,4,3,7,5,10c1,2,3,3,5,5-1,2-2,5-3,8c0,4,1,8,2,12l2,6l3-6c0,0,1-3,7-6c3-2,6-3,8-3c3,0,6,0,8,0c3,0,6,1,10,2c3,1,6,2,8,4s4,3,5,5c0,2,1,4,1,5c0,3-1,5-2,8-1,2-3,3-5,5-2,1-5,1-7,1-3-1-5-2-6-4-2-1-3-3-3-5Z" clip-rule="evenodd" fill="#fefefe"/><path d="M91,1043c0,2,0,6,4,10c5,4,11,5,16,2s8-8,9-14c0-6-5-12-10-15-5-4-12-9-23-9s-16,6-16,6c-1-8,2-15,9-19-6-3-9-9-8-17c5-1,11-1,17,5c1-8,6-14,13-15c0,0-3,7,0,14c3,11,11,16,20,20c7,5,12,10,12,10c1-1,1-3,4-6c1-2,4-5,9-9c6-4,9-9,11-13s2-7,2-9c0-5-1-8-2-10c6-1,12,4,15,11c3-4,8-6,16-6c1,7-1,12-6,16c8,2,12,7,12,14-2-1-7-2-10-2-6,0-14,1-22,8-5,4-8,8-10,12c0,2-1,4-1,6s1,5,3,8c3,3,7,6,12,6s8-2,11-4c3-3,4-6,4-9c0-4-3-8-5-9c4-1,10,0,14,3c5,4,9,10,8,16c0,3,0,6-1,8-2,4-4,6-5,7c2,3,4,9,4,15c0,7-3,11-5,13-3-4-6-12-16-19s-24-10-37-8c-12,2-20,9-24,13s-9,11-12,19c-2,8-2,15-2,15-6-1-10-9-12-17-1-5,0-10,0-12c0,0-2-1-6-5s-6-10-6-16c0-5,1-12,6-16c4-5,10-5,10-5-2,2-2,5-2,7Z" clip-rule="evenodd" fill="#fbbc00"/><path d="M88,1043c0,1,0,3,1,5s2,5,4,7c3,3,6,4,10,5c3,0,7-1,10-3c2-1,5-4,6-7c2-2,3-6,3-9s-1-7-3-9c-2-4-4-7-7-9h-1c-5-3-13-8-24-8-6,0-10,1-13,3c0-2,0-4,1-5c1-3,3-5,6-7l4-2-4-2c-2-2-4-4-5-6s-1-4-2-7c2,0,4,0,6,0c2,1,5,2,7,4l4,4v-5c1-4,2-7,4-9c1-1,2-2,3-2c0,3,0,7,1,11c2,6,5,10,9,14c4,3,8,5,13,8c7,4,11,9,11,9l3,3l1-4c1,0,1-1,1-2c1-1,2-2,3-3c0-1,2-2,3-4c2-1,3-3,6-5c2-2,5-4,7-7c2-2,3-5,4-7s2-4,2-6s1-3,1-4c0-2-1-4-1-6v-1c1,0,2,1,3,2c2,1,4,4,5,7l2,4l3-3c1-2,3-3,5-4s4-1,6-2c1,2,1,4,0,6s-2,4-4,6l-4,3l5,1c3,1,5,3,7,5c1,1,1,2,2,3h-1c-2-1-4-1-6-1-4,0-8,1-13,2-3,2-7,4-10,7-3,2-5,4-7,6s-3,4-4,6c0,2-1,3-1,4s-1,2-1,4c0,1,1,3,1,5c1,1,2,3,3,4v0c2,2,4,4,6,6c3,1,5,2,8,2s5-1,7-2s4-2,6-4c1-1,2-3,3-4c1-2,1-4,1-6s0-4-1-6v0c0,0,0,0,1,0c2,0,4,1,6,3c2,1,4,3,5,6c1,2,2,5,2,7v0c0,2,0,3-1,4c0,1,0,2-1,3v0c0,2-1,3-2,4s-2,2-2,3l-2,1l2,2c1,1,2,3,2,6c1,2,2,5,2,7c0,3-1,5-2,7c0,1,0,1-1,2-1-2-2-4-3-6-3-4-7-7-12-11s-12-6-18-8c-7-1-13-2-20-1s-12,4-17,6c-4,3-7,6-9,8-3,2-5,6-7,10-2,3-4,6-5,10-1,5-2,9-2,12-1-1-2-2-3-3-2-3-3-7-4-10-1-2-1-4-1-6s1-4,1-5v-2l-2-1c0,0-1-1-5-5-2-1-3-3-4-6-1-2-2-5-2-8c0-2,1-5,2-8c0-2,2-5,4-6c1-2,2-3,3-3c0,1,0,2,0,3v0Zm6,4c-1-2-1-3-1-4s0-2,1-3c0-1,0-2,1-3l2-4h-5c0,0-6,1-11,6-2,2-4,5-5,8s-2,7-2,10c0,4,1,7,2,10s3,6,5,8c3,2,4,3,5,4c0,2,0,3,0,5s0,4,1,7c1,4,2,9,5,12c2,3,6,6,9,6l3,1v-4c0,0,0-5,2-13c1-4,2-7,4-10s4-6,6-8s5-5,9-7s9-5,15-6s12,0,18,1s11,4,16,7c5,4,8,7,10,10c3,3,4,6,5,8l1,3l3-2c2-1,4-3,5-6c1-2,2-5,2-9c0-3-1-6-2-8c0-3-1-5-2-6c0-1,1-1,1-2c1-1,2-3,3-5c1-1,1-2,1-4c1-1,1-3,1-5c0-3-1-6-2-9-2-4-5-7-7-9-3-1-5-2-8-3s-6-1-8-1l-6,1l5,4c0,0,1,1,2,3c1,1,1,3,1,4s0,2-1,4c0,1-1,2-2,3s-2,2-4,3c-1,0-3,1-5,1s-4-1-5-2c-2-1-4-2-5-4-1-1-1-2-2-3c0-1,0-2,0-3s0-2,0-3s0-2,1-2v0c1-2,2-4,3-5c2-2,4-4,6-6c3-3,6-5,9-6c4-1,8-2,11-2c1,0,3,1,5,1s3,1,4,1l4,3v-5c-1-4-2-8-4-11-2-2-4-3-6-4c1-2,2-4,3-5c1-4,1-7,0-11v-2h-2c-4,0-8,1-11,2-1,1-3,2-4,3-2-3-4-5-6-6-3-3-7-4-11-4h-4l2,4c1,1,1,2,2,4c0,1,0,3,0,4v1c0,1,0,2,0,3c0,2-1,3-1,5-1,2-3,4-4,6-2,2-4,4-7,6-2,2-4,4-6,6-1,1-2,3-3,4s-2,2-3,3c-2-2-5-5-10-8-4-2-8-4-11-7-4-3-6-7-8-11-2-7,0-13,0-13l2-4h-4c-4,1-8,3-11,6-2,2-3,4-4,7-2-1-4-2-6-3-3,0-6,0-9,0l-3,1v2c0,4,1,8,2,11c1,2,3,4,4,6-2,2-3,4-5,6-1,4-2,9-1,13v6l4-4c0,0,5-5,14-5c10,0,16,4,21,7l1,1c2,1,4,4,6,6c1,2,2,5,2,7s-1,5-2,7-3,4-5,5-4,2-7,1c-2,0-4-1-6-2-2-2-3-4-3-5Z" clip-rule="evenodd" fill="#fefefe"/><path d="M200,815c-3-3-9-7-18-7s-16,4-22,7c-5,4-9,9-9,14s4,10,7,13c3,2,10,4,15,1s7-7,7-11-1-7-2-7c1,0,8,1,12,6s6,12,4,19c-2,8-10,12-10,12s3,8,0,17-8,10-8,10c-2-10-7-20-15-27-9-8-19-12-24-13s-16-2-27,3c-12,5-19,16-22,20-3,5-5,12-5,12-5-2-7-10-7-17c0-8,2-12,3-14-3-3-6-8-7-12-1-3-1-9,2-15c2-6,7-10,11-12c5-1,8-1,9-1-2,2-5,6-5,11c0,4,2,7,5,10c2,2,10,5,16,2c6-4,9-9,9-15c0-5-3-10-3-10-6-9-14-15-25-18-6-1-11,0-15,2c2-8,6-14,14-16-5-5-6-11-4-18c7,0,12,3,15,8c1,0,2-5,8-8c5-3,9-2,9-2-3,4-6,13-3,21c3,7,6,11,13,17c7,7,9,13,9,13c2-2,5-5,9-7c4-3,10-4,14-7c2-2,5-4,7-6c8-9,6-18,6-20c5,1,11,8,11,15c4-3,10-4,17-2c0,7-3,12-9,14c5,3,7,8,8,12c0,3,0,6,0,6Z" clip-rule="evenodd" fill="#fbbc00"/><path d="M197,810c-1-1-3-2-4-2-3-2-7-2-11-2s-8,1-12,2-8,3-11,5-6,5-8,7c-1,3-2,6-2,9s1,6,2,8c1,3,3,5,6,7c2,1,5,3,8,3s6,0,9-2c3-1,5-3,6-5c2-3,3-6,3-8c0-1,0-2,0-3c0,0,0,0,1,1c1,0,3,2,4,3c2,2,3,5,4,8s0,6,0,9c-2,6-9,10-9,10l-2,1v2c0,0,3,7,1,15-2,4-3,6-5,7-1-4-2-8-4-12-3-5-6-9-11-13-3-4-7-6-11-8-5-3-10-4-14-5v0c-2-1-6-1-11-1s-11,1-17,4c-5,2-10,5-13,8-5,5-9,10-10,13-2,3-3,6-4,9-1-1-1-2-2-3-1-3-2-7-1-10c0-4,0-6,1-8c0-2,1-4,2-5v-2l-1-1c-1-1-3-3-4-5s-2-4-2-5c-1-2-1-4-1-6s1-5,2-8c1-2,3-5,4-6c2-2,4-4,6-4c1-1,2-1,2-1v1c-1,2-1,4-1,7c0,2,0,4,1,6s2,4,4,5c1,2,5,4,9,5c3,0,7,0,10-2s6-5,8-7c1-3,2-6,2-10c0-6-3-11-3-11-3-5-7-9-11-12-5-4-10-6-15-7h-1c-3-1-6-1-9-1c0,1-1,1-2,1c1-2,2-4,3-5c2-2,4-4,7-4l4-1-3-4c-1-2-3-4-3-6c0-3,0-5,0-8c2,1,4,1,6,2c2,2,4,3,5,6l3,4c0-1,1-3,2-5c0-1,2-5,6-7c1-1,3-1,4-2-1,3-2,5-2,8-1,4-1,8,1,12c1,4,3,6,5,9s5,6,8,9c7,6,9,12,9,12l1,4l3-3c1-1,2-3,4-4c1-1,3-2,4-3c2-1,4-2,6-3c3-1,6-2,8-4c2-1,3-2,4-3c2-1,3-2,4-3c4-5,6-10,7-14c0-1,0-3,0-4c1,1,2,2,3,3c1,2,2,5,3,8v5l4-3c1-1,3-2,6-2c2,0,4,0,6,0c0,2,0,4-1,6-2,1-4,3-6,4l-4,2l4,3c2,1,3,2,4,3c1,2,2,4,2,6v1Zm-6,2c3,1,5,3,7,4l3,4l1-5c0,0,1-3,0-7c0-2-1-5-3-7c0-1-1-2-2-3c1-2,3-3,4-5c2-2,3-6,3-10v-2h-2c-4-1-8-1-11-1-2,0-3,1-5,1c0-2-2-5-3-7-3-3-6-6-10-6l-4-1l1,4c0,1,1,3,0,6c0,4-1,7-5,11v0c-1,1-2,2-3,3s-2,2-4,3-4,2-7,3c-2,1-4,3-7,4v0c-1,1-3,2-5,3c0,1-1,1-1,2-2-3-4-7-8-11-4-3-6-5-8-8-2-2-3-5-4-8s-2-7-1-10c0-3,2-7,3-9l3-3-4-1c0,0-6-1-12,3-3,1-5,4-6,6-1-2-3-3-4-4-3-2-7-3-10-3h-2l-1,2c-1,4-2,8-1,12c0,2,1,4,2,6-2,1-4,3-6,5-3,3-4,7-5,12l-1,5l5-3c1-1,3-1,5-1c2-1,5-1,8,0c5,1,9,3,12,6c4,3,8,7,10,11c0,0,3,4,3,8c0,3,0,5-2,7-1,2-3,4-6,5-2,2-4,2-6,2-3-1-5-2-6-3-2-1-3-3-3-4-1-1-1-3-1-4c0-2,0-4,1-5c1-2,1-3,2-4l5-4h-6c-2-1-5-1-9,1v0c-3,1-6,3-8,5s-4,5-6,8c-1,4-2,7-2,10s0,5,1,7s2,5,3,7s2,3,3,4c0,1-1,3-1,4-1,3-1,6-2,10c0,4,1,8,3,12c1,3,3,6,7,7l2,1l1-3c0,0,2-6,4-10c2-3,5-8,9-12c3-3,7-5,12-7c5-3,10-4,15-4c4,0,8,0,10,1c3,1,8,2,13,4c3,2,7,4,10,7c4,4,7,8,9,12c3,5,4,9,5,14v3l3-1c0,0,7-1,11-12c2-7,1-13,0-16c3-2,8-6,9-12c2-4,2-7,1-11s-3-7-5-10c-2-2-4-4-6-5-3-2-7-3-7-3h-6l3,4c0,0,1,1,1,2s1,2,1,4c0,1-1,3-2,5-1,1-2,2-4,4-2,1-4,1-6,1-3-1-5-1-6-2-2-2-4-3-5-6-1-1-1-3-1-5s1-4,2-6s3-4,6-6c3-1,6-3,10-4c3-1,6-2,10-2c3,0,7,1,9,1Z" clip-rule="evenodd" fill="#fefefe"/><path d="M1317,406l-207,96c-2-4-4-7-6-11l192-103c7,6,14,12,21,18Z" clip-rule="evenodd" fill="#fbbc00" fill-rule="evenodd"/><path d="M1008,261L976,390c-4-1-8-2-12-3l24-128c7,1,13,1,20,2Z" clip-rule="evenodd" fill="#fbbc00" fill-rule="evenodd"/><path d="M1366,455l-246,74c-1-4-3-7-4-11l230-84c7,7,13,14,20,21Z" clip-rule="evenodd" fill="#fbbc00" fill-rule="evenodd"/><path d="M1400,498l-275,52c-1-4-2-8-3-12l259-64c7,8,13,16,19,24Z" clip-rule="evenodd" fill="#fbbc00" fill-rule="evenodd"/><path d="M1432,548l-305,23c0-4-1-8-1-11l288-40c6,9,12,18,18,28Z" clip-rule="evenodd" fill="#fbbc00" fill-rule="evenodd"/><path d="M775,716c-2-3-5-6-7-9L622,818l12,19L775,716Z" clip-rule="evenodd" fill="#fbbc00" fill-rule="evenodd"/><path d="M348,856l17,34L751,682c-2-4-4-7-5-11L348,856Z" clip-rule="evenodd" fill="#fbbc00" fill-rule="evenodd"/><path d="M1242,348L1088,465c-2-3-5-6-8-9l141-121c7,5,14,9,21,13Z" clip-rule="evenodd" fill="#fbbc00" fill-rule="evenodd"/><path d="M1129,292l-88,128c-3-2-6-5-10-7l78-128c7,2,13,4,20,7Z" clip-rule="evenodd" fill="#fbbc00" fill-rule="evenodd"/><path d="M1043,267L996,396c-3-1-7-2-11-3l39-129c6,1,13,2,19,3Z" clip-rule="evenodd" fill="#fbbc00" fill-rule="evenodd"/><path d="M1092,280l-69,128c-3-1-7-3-11-5l60-129c7,2,14,4,20,6Z" clip-rule="evenodd" fill="#fbbc00" fill-rule="evenodd"/><path d="M1204,326L1074,448c-3-3-6-6-8-8l117-125c7,4,14,7,21,11Z" clip-rule="evenodd" fill="#fbbc00" fill-rule="evenodd"/><path d="M1166,307L1058,433c-3-2-6-5-9-7l97-128c7,3,13,6,20,9Z" clip-rule="evenodd" fill="#fbbc00" fill-rule="evenodd"/><path d="M1280,375L1100,483c-2-4-4-7-6-10l165-113c7,5,14,10,21,15Z" clip-rule="evenodd" fill="#fbbc00" fill-rule="evenodd"/><path d="M1506,856L1108,671c-2,4-4,7-5,11l386,208l17-34Z" clip-rule="evenodd" fill="#fbbc00" fill-rule="evenodd"/><path d="M1472,915L1098,690c-2,3-4,6-7,10l360,246l21-31Z" clip-rule="evenodd" fill="#fbbc00" fill-rule="evenodd"/><path d="M762,700c-2-4-4-7-6-10L382,915l20,31L762,700Z" clip-rule="evenodd" fill="#fbbc00" fill-rule="evenodd"/><path d="M349,760L735,644c1,4,3,8,4,11L345,799c1-13,3-26,4-39Z" clip-rule="evenodd" fill="#fbbc00" fill-rule="evenodd"/><path d="M362,693l368-69c1,4,2,7,3,11L354,729c3-12,5-24,8-36Z" clip-rule="evenodd" fill="#fbbc00" fill-rule="evenodd"/><path d="M409,572l317,9c0,1,0,2,0,4s0,5,0,8L394,603c4-11,9-21,15-31Z" clip-rule="evenodd" fill="#fbbc00" fill-rule="evenodd"/><path d="M972,257L955,386c-4-1-8-1-12-1l10-129c6,1,13,1,19,1Z" clip-rule="evenodd" fill="#fbbc00" fill-rule="evenodd"/><path d="M1499,729l-378-94c1-4,2-7,3-11l367,68c3,13,6,25,8,37Z" clip-rule="evenodd" fill="#fbbc00" fill-rule="evenodd"/><path d="M1482,663l-357-49c1-4,1-8,2-11l344,26c4,12,8,23,11,34Z" clip-rule="evenodd" fill="#fbbc00" fill-rule="evenodd"/><path d="M439,520l289,40c-1,3-1,7-1,11L422,548c5-10,11-19,17-28Z" clip-rule="evenodd" fill="#fbbc00" fill-rule="evenodd"/><path d="M1460,603l-333-10c0-3,1-6,1-8s-1-3-1-4l318-9c5,10,10,20,15,31Z" clip-rule="evenodd" fill="#fbbc00" fill-rule="evenodd"/><path d="M1508,799L1115,655c1-3,2-7,4-11l385,116c2,13,3,26,4,39Z" clip-rule="evenodd" fill="#fbbc00" fill-rule="evenodd"/><path d="M383,629l344-26c0,3,1,7,1,11L371,664c3-12,7-23,12-35Z" clip-rule="evenodd" fill="#fbbc00" fill-rule="evenodd"/><path d="M830,264l39,129c-4,1-8,2-12,3L810,267c7-1,13-2,20-3Z" clip-rule="evenodd" fill="#fbbc00" fill-rule="evenodd"/><path d="M745,285l77,128c-3,2-6,5-10,7L725,292c6-3,13-5,20-7Z" clip-rule="evenodd" fill="#fbbc00" fill-rule="evenodd"/><path d="M865,259l25,128c-4,1-8,2-12,3L846,261c6-1,13-1,19-2Z" clip-rule="evenodd" fill="#fbbc00" fill-rule="evenodd"/><path d="M781,274l60,129c-3,2-7,4-10,5L761,279c7-1,13-3,20-5Z" clip-rule="evenodd" fill="#fbbc00" fill-rule="evenodd"/><path d="M895,257c2-1,3-1,5-1c0,0,1,0,1,0l10,129c-4,0-8,0-12,1L881,257c5,0,10,0,14,0Z" clip-rule="evenodd" fill="#fbbc00" fill-rule="evenodd"/><path d="M472,474l260,64c-1,4-2,8-3,12L453,498c6-8,13-16,19-24Z" clip-rule="evenodd" fill="#fbbc00" fill-rule="evenodd"/><path d="M917,256h1v0v0c3,0,6,0,9,0v0c3,0,6,0,10,0l-4,128c-2,0-4,0-6,0s-4,0-6,0l-4-128Z" clip-rule="evenodd" fill="#fbbc00" fill-rule="evenodd"/><path d="M595,359L760,473c-2,3-4,6-6,10L574,375c7-6,14-11,21-16Z" clip-rule="evenodd" fill="#fbbc00" fill-rule="evenodd"/><path d="M708,298l97,128c-4,2-7,5-10,7L687,307c7-3,14-6,21-9Z" clip-rule="evenodd" fill="#fbbc00" fill-rule="evenodd"/><path d="M507,434l231,84c-2,4-3,7-4,11L488,455c6-7,13-14,19-21Z" clip-rule="evenodd" fill="#fbbc00" fill-rule="evenodd"/><path d="M557,388L749,491c-2,4-3,7-5,11L537,405c6-6,13-12,20-17Z" clip-rule="evenodd" fill="#fbbc00" fill-rule="evenodd"/><path d="M633,335L773,456c-2,3-5,6-7,9L612,348c7-4,13-9,21-13Z" clip-rule="evenodd" fill="#fbbc00" fill-rule="evenodd"/><path d="M670,315L788,440c-3,2-6,5-8,8L650,326c6-4,13-8,20-11Z" clip-rule="evenodd" fill="#fbbc00" fill-rule="evenodd"/><path d="M772,585c0-86,69-156,155-156s155,70,155,156c0,85-69,155-155,155s-155-70-155-155Z" clip-rule="evenodd" fill="#fbbc00" fill-rule="evenodd"/><polygon points="509,959 1329,959 1276,1216 568,1216" clip-rule="evenodd" fill="#00a0e3" fill-rule="evenodd"/><path d="M1021,980c-2,7-5,13-9,17-1-2-2-3-4-5c3-3,5-7,6-12h7Z" clip-rule="evenodd" fill="#fefefe"/><path d="M1158,980c-2,7-6,14-11,19-7,7-16,11-27,11-10,0-20-4-27-11-5-5-9-12-10-19h6c2,6,5,10,8,14c6,6,14,10,23,10s17-4,23-10c4-4,6-8,8-14h7Z" clip-rule="evenodd" fill="#fefefe"/><path d="M1089,980c-1,7-5,14-10,19-7,7-17,11-27,11-11,0-20-4-27-11-5-5-9-12-11-19h7c2,6,4,10,8,14c6,6,14,10,23,10s17-4,23-10c3-4,6-8,8-14h6Z" clip-rule="evenodd" fill="#fefefe"/><path d="M1221,991c-1,3-3,6-5,8-7,7-17,11-28,11-10,0-20-4-27-11-5-5-8-12-10-19h7c1,6,4,10,8,14c6,6,14,10,22,10c9,0,17-4,23-10c4-4,7-8,8-14h3c-1,3-1,6-1,9c0,1,0,2,0,2Z" clip-rule="evenodd" fill="#fefefe"/><path d="M1125,1032c-2,7-6,13-10,18-7,7-17,11-28,11-10,0-20-4-27-11-5-5-8-11-10-18h6c2,5,5,10,9,14c5,5,13,9,22,9s17-4,23-9c4-4,7-9,8-14h7Z" clip-rule="evenodd" fill="#fefefe"/><path d="M1252,1049c0,1-1,1-1,1-7,7-16,11-27,11s-20-4-27-11c-5-5-9-11-11-18h7c2,5,4,10,8,14c6,5,14,9,23,9s17-4,23-9v-1c2,2,3,3,5,4Z" clip-rule="evenodd" fill="#fefefe"/><path d="M1056,1032c-1,7-5,13-10,18-7,7-16,11-27,11-9,0-17-3-24-8c2-1,4-2,6-3c5,3,11,5,18,5c9,0,17-4,23-9c3-4,6-9,8-14h6Z" clip-rule="evenodd" fill="#fefefe"/><path d="M1193,1032c-2,7-5,13-10,18-7,7-17,11-27,11-11,0-21-4-28-11-5-5-8-11-10-18h7c1,5,4,10,8,14c6,5,14,9,23,9c8,0,17-4,22-9c4-4,7-9,8-14h7Z" clip-rule="evenodd" fill="#fefefe"/><path d="M1021,1083c-2,7-5,14-10,19-7,7-17,11-27,11-5,0-10-1-14-3c0-2-1-5-1-7c4,2,9,4,15,4c8,0,16-4,22-10c4-4,7-8,8-14h7Z" clip-rule="evenodd" fill="#fefefe"/><path d="M1158,1083c-2,7-6,14-11,19-7,7-16,11-27,11-10,0-20-4-27-11-5-5-9-12-10-19h6c2,6,5,10,8,14c6,6,14,10,23,10s17-4,23-10c4-4,6-8,8-14h7Z" clip-rule="evenodd" fill="#fefefe"/><path d="M1233,1104c-1,0-2-1-3-2-5-5-9-12-11-19h7c1,6,4,10,8,14c1,1,2,2,3,3-1,1-3,3-4,4Z" clip-rule="evenodd" fill="#fefefe"/><path d="M1089,1083c-1,7-5,14-10,19-7,7-17,11-27,11-11,0-20-4-27-11-5-5-9-12-11-19h7c2,6,4,10,8,14c6,6,14,10,23,10s17-4,23-10c3-4,6-8,8-14h6Z" clip-rule="evenodd" fill="#fefefe"/><path d="M1226,1083c-2,7-5,14-10,19-7,7-17,11-28,11-10,0-20-4-27-11-5-5-8-12-10-19h7c1,6,4,10,8,14c6,6,14,10,22,10c9,0,17-4,23-10c4-4,7-8,8-14h7Z" clip-rule="evenodd" fill="#fefefe"/><path d="M1125,1135c-2,7-6,13-10,18-7,7-17,11-28,11-10,0-20-4-27-11-5-5-8-11-10-18h6c2,5,5,10,9,14c5,5,13,9,22,9s17-4,23-9c4-4,7-9,8-14h7Z" clip-rule="evenodd" fill="#fefefe"/><path d="M1056,1135c-1,7-5,13-10,18-7,7-16,11-27,11s-20-4-27-11c-5-5-9-11-10-18h6c2,5,4,10,8,14c6,5,14,9,23,9s17-4,23-9c3-4,6-9,8-14h6Z" clip-rule="evenodd" fill="#fefefe"/><path d="M1145,1163c-7-2-12-6-17-10-5-5-8-11-10-18h7c1,5,4,10,8,14c6,5,14,9,23,9v0c-4,2-8,3-11,5Z" clip-rule="evenodd" fill="#fefefe"/><path d="M748,980c-2,7-6,14-10,19-7,7-17,11-28,11-10,0-20-4-27-11-5-5-8-12-10-19h6c2,6,5,10,9,14c5,6,13,10,22,10s17-4,23-10c4-4,7-8,8-14h7Z" clip-rule="evenodd" fill="#fefefe"/><path d="M884,980c-1,7-5,14-10,19-7,7-16,11-27,11s-20-4-27-11c-5-5-9-12-11-19h7c2,6,4,10,8,14c6,6,14,10,23,10s17-4,23-10c3-4,6-8,8-14h6Z" clip-rule="evenodd" fill="#fefefe"/><path d="M679,980c-1,7-5,14-10,19-7,7-16,11-27,11-4,0-8-1-12-2c0-2,1-4,1-6c4,1,7,2,11,2c9,0,17-4,23-10c3-4,6-8,8-14h6Z" clip-rule="evenodd" fill="#fefefe"/><path d="M816,980c-2,7-5,14-10,19-7,7-17,11-27,11-11,0-21-4-28-11-5-5-8-12-10-19h7c1,6,4,10,8,14c6,6,14,10,23,10c8,0,17-4,22-10c4-4,7-8,8-14h7Z" clip-rule="evenodd" fill="#fefefe"/><path d="M897,1005c-3-2-6-4-9-6-5-5-9-12-10-19h6c2,6,5,10,8,14c3,3,6,5,10,7-2,1-4,3-5,4Z" clip-rule="evenodd" fill="#fefefe"/><path d="M715,1032c-2,7-5,13-10,18-7,7-17,11-28,11-10,0-20-4-27-11-5-5-8-11-10-18h7c1,5,4,10,8,14c5,5,14,9,22,9c9,0,17-4,23-9c4-4,7-9,8-14h7Z" clip-rule="evenodd" fill="#fefefe"/><path d="M851,1032c-1,7-5,13-10,18-7,7-16,11-27,11s-20-4-27-11c-5-5-9-11-10-18h6c2,5,5,10,8,14c6,5,14,9,23,9s17-4,23-9c4-4,6-9,8-14h6Z" clip-rule="evenodd" fill="#fefefe"/><path d="M647,1032c-2,7-6,13-11,18-7,7-16,11-27,11-7,0-13-1-19-5c2-1,5-2,7-3c4,1,8,2,12,2c9,0,17-4,23-9c4-4,6-9,8-14h7Z" clip-rule="evenodd" fill="#fefefe"/><path d="M783,1032c-2,7-5,13-10,18-7,7-17,11-27,11-11,0-21-4-28-11-4-5-8-11-10-18h7c1,5,4,10,8,14c6,5,14,9,23,9s17-4,22-9c4-4,7-9,9-14h6Z" clip-rule="evenodd" fill="#fefefe"/><path d="M866,1058c-4-2-8-5-11-8-5-5-8-11-10-18h6c2,5,5,10,9,14c2,2,5,4,8,6c0,2-1,4-2,6Z" clip-rule="evenodd" fill="#fefefe"/><path d="M748,1083c-2,7-6,14-10,19-7,7-17,11-28,11-10,0-20-4-27-11-5-5-8-12-10-19h6c2,6,5,10,9,14c5,6,13,10,22,10s17-4,23-10c4-4,7-8,8-14h7Z" clip-rule="evenodd" fill="#fefefe"/><path d="M854,1112c-2,1-5,1-7,1-11,0-20-4-27-11-5-5-9-12-11-19h7c2,6,4,10,8,14c6,6,14,10,23,10c3,0,6-1,8-2l-1,7Z" clip-rule="evenodd" fill="#fefefe"/><path d="M816,1083c-2,7-5,14-10,19-7,7-17,11-27,11-11,0-21-4-28-11-5-5-8-12-10-19h7c1,6,4,10,8,14c6,6,14,10,23,10c8,0,17-4,22-10c4-4,7-8,8-14h7Z" clip-rule="evenodd" fill="#fefefe"/><path d="M715,1135c-2,7-5,13-10,18-2,2-5,4-7,5-3-1-5-2-7-3c3-1,6-4,9-6c4-4,7-9,8-14h7Z" clip-rule="evenodd" fill="#fefefe"/><path d="M783,1135c-2,7-5,13-10,18-7,7-17,11-27,11-11,0-21-4-28-11-4-5-8-11-10-18h7c1,5,4,10,8,14c6,5,14,9,23,9s17-4,22-9c4-4,7-9,9-14h6Z" clip-rule="evenodd" fill="#fefefe"/><path d="M679,1083c-1,7-5,14-10,19-7,7-16,11-27,11s-20-4-27-11c-5-5-9-12-10-19h6c2,6,4,10,8,14c6,6,14,10,23,10s17-4,23-10c3-4,6-8,8-14h6Z" clip-rule="evenodd" fill="#fefefe"/><path d="M851,1135c-1,7-5,13-10,18-7,7-16,11-27,11s-20-4-27-11c-5-5-9-11-10-18h6c2,5,5,10,8,14c6,5,14,9,23,9s17-4,23-9c4-4,6-9,8-14h6Z" clip-rule="evenodd" fill="#fefefe"/><path d="M600,860l50,38l107-49l34,27l98-40l40,12l25-28l128,49l38-12l11,14l46-37l99,44l23-24l102,15l108-42-172-61-41,33-108-60-26,21-129-96-30,29-76-75-79,95-26-15-87,64-46-34-100,46-19-27c-51,18-185,66-226,81L444,933l156-73Z" clip-rule="evenodd" fill="#00a0e3" fill-rule="evenodd"/><polygon points="589,774 589,774 553,805 545,782 527,772 570,747" clip-rule="evenodd" fill="#fefefe" fill-rule="evenodd"/><polygon points="1296,799 1296,799 1268,822 1218,789 1233,781 1188,739" clip-rule="evenodd" fill="#fefefe" fill-rule="evenodd"/><polygon points="1162,760 1162,760 1132,784 1105,771 1092,789 1061,732 1067,721 1046,701 1033,664" clip-rule="evenodd" fill="#fefefe" fill-rule="evenodd"/><polygon points="1003,693 1003,693 1005,772 929,685 944,666 927,618" clip-rule="evenodd" fill="#fefefe" fill-rule="evenodd"/><polygon points="822,698 822,698 848,713 828,737 853,792 797,771 786,737 805,733" clip-rule="evenodd" fill="#fefefe" fill-rule="evenodd"/><path d="M1509,827c0,4,0,8,0,11c0,1,0,2,0,3v0l-103-38-39,5-30-42l172,61Z" clip-rule="evenodd" fill="#fefefe" fill-rule="evenodd"/><polygon points="689,728 735,762 726,817 703,816 687,796 662,803 651,777 668,762" clip-rule="evenodd" fill="#fefefe" fill-rule="evenodd"/><path d="M1507,887l-64,25c-76-27-97-18-124-35-10-5-8-20-20-23c70,5,139,17,209,26-1,2-1,5-1,7Z" clip-rule="evenodd" fill="#fbbc00"/><path d="M1279,918c-61-3-62-46-102-84c35,13,69,28,100,42-14,15-12,29,2,42Z" clip-rule="evenodd" fill="#fbbc00"/><path d="M1131,871c-26,13-42,58-97,54c47-14,52-50,86-68c3,2,9,10,11,14Z" clip-rule="evenodd" fill="#fbbc00"/><path d="M1085,868c-25,8-51,14-88,37c10-40,1-58-43-85c44,10,92,31,131,48Z" clip-rule="evenodd" fill="#fbbc00"/><path d="M929,848c-20,21-34,34-52,51-2-9,18-22,22-35c4-15-8-24-10-28c11,2,30,8,40,12Z" clip-rule="evenodd" fill="#fbbc00"/><path d="M795,874c-24,9,45,38,66,46-23-2-83-14-105-28-11-7-12-16-4-21c13-8,12-12,5-22c10,7,26,17,38,25Z" clip-rule="evenodd" fill="#fbbc00"/><path d="M602,913c15-23,8-39-2-53c19,10,35,26,50,38-20,9-33,15-48,15Z" clip-rule="evenodd" fill="#fbbc00"/><path d="M391,1217c13,14,27,29,41,42c26,21,59,22,82,12l30-12c16-7,39-6,57,7-27-1-45,13-66,26-13,7-28,12-46,12c11,7,23,14,35,21c26,14,57,10,79-5l18-12c14-10,33-13,51-6-11,1-25,8-35,19l-8,8c-12,13-27,22-43,25c10,4,21,8,32,11c24,7,49,0,65-18l10-11c10-12,26-19,43-15-7,3-17,10-23,20l-9,15c-7,11-17,19-26,24c9,1,18,2,27,3c24,2,44-12,55-29c10-14,25-28,42-25c10,1,14,10,14,19c1,25-31,74-37,95-8,27,15,32,23,25-9,24-3,56,20,64v1c-2,8-5,14-9,19-15,0-15-12-30-17-19-6-32,18-14,30-1-10,6-13,12-11c2,1,6,4,9,8-10,3-16,9-15,18c0,8,7,15,21,15-7-6-5-13-1-16s11-3,15-2c2,0,8,5,15,4c8,0,13-1,16-2c6,0,14,1,15,7c0,5-2,9-6,11c21,8,34-23,11-30-14-3-22-14-18-27c0-1,1-3,1-4c10,18,32,30,53,26c0,0,8,18,30,18c21,0,29-18,29-18c22,4,44-8,54-26c0,1,0,3,1,4c4,13-5,24-18,27-23,7-11,38,10,30-3-2-5-6-5-11c1-6,9-7,15-7c3,1,8,2,16,2c7,1,13-4,14-4c5-1,12-1,16,2s6,10-1,16c14,0,21-7,21-15c0-9-6-15-15-18c3-4,7-7,9-8c6-2,13,1,12,11c18-12,5-36-14-30-15,5-16,17-30,17-4-5-7-11-9-19v-1c23-8,28-40,20-64c8,7,30,2,23-25-6-21-38-70-38-95c1-9,5-18,15-19c17-3,32,11,41,25c12,17,32,31,55,29c9-1,19-2,28-3-10-5-20-13-26-24l-10-15c-6-10-15-17-23-20c17-4,34,3,44,15l10,11c16,18,41,25,65,18c11-3,21-7,32-11-16-3-31-12-43-25l-8-8c-10-11-24-18-36-19c19-7,38-4,52,6l18,12c21,15,53,19,79,5c12-7,23-14,35-21-18,0-33-5-46-12-21-13-39-27-66-26c18-13,41-14,57-7l30,12c23,10,56,9,81-12c15-13,29-28,41-42-20,6-40,6-59,1l-32-9c-15-4-32-4-48,0c15-14,38-25,65-23l27,3c43,5,81-16,102-50c10-18,19-36,27-55-19,15-41,24-67,24h-40c-17,1-32,5-46,14c10-19,29-34,50-39l40-11c66-17,94-72,94-136c0-10,0-20-1-29-13,24-36,44-63,55l-38,16c-13,5-25,13-35,23c4-32,20-51,46-70c16-11,29-20,41-31c52-49,54-128,25-190-46,131-181,170-260,207-38,19-55,41-55,72c1,30,22,53,47,60l-1,4-1,3v1c-16,38-45,71-83,95-35,22-78,37-119,42h-1l-2,1c-8,1-16,1-24,2v0c-28,1-57-10-74-32-16-21-21-49-24-77-2-20,3-37,22-44c7-3,16-2,22-9-20,1-24-6-36-6c9-4,17-17,31-17c4,0,8,2,10,5c5-16-16-24-36-17-11-9-31-6-45,3-23,15-37,42-45,72-8,31-8,52-17,80-11,36-39,43-71,41v0v0c-92-9-172-56-207-124v0l-2-4v0l-1-3-1-1-1-3v-1l-2-3v0l-1-3v-1l-2-4c26-7,47-30,47-60c1-31-16-53-55-72-79-37-213-76-259-207-29,62-28,141,25,190c12,11,25,20,41,31c26,19,42,38,46,70-10-10-22-18-35-23l-38-16c-28-11-50-31-63-55-1,9-1,19-1,29c0,64,28,119,93,136l41,11c21,5,40,20,49,39-13-9-28-13-45-14h-41c-25,0-47-9-66-24c8,19,16,37,27,55c20,34,59,55,102,50l27-3c27-2,50,9,64,23-16-4-32-4-47,0l-32,9c-19,5-39,5-60-1Z" clip-rule="evenodd" fill="#fefefe" fill-rule="evenodd"/><path d="M920,1021c12-7,13-13,23-18c6-2,13-2,17,3-2,0-4,0-4,3-1,5-4,8-8,9-3,1-6,0-9-2-5-4-10,6-19,5Z" clip-rule="evenodd" fill="#cacbcb" fill-rule="evenodd"/><path d="M945,1200c0,2,1,4,1,6c0,12-9,21-19,21-11,0-19-9-19-21c0-2,0-4,0-6c3,8,10,14,19,14c8,0,15-6,18-14Z" clip-rule="evenodd" fill="#cacbcb" fill-rule="evenodd"/><path d="M904,1200c0,2,1,4,1,6c0,12-9,21-19,21-11,0-19-9-19-21c0-2,0-4,1-6c2,8,9,14,18,14c8,0,15-6,18-14Z" clip-rule="evenodd" fill="#cacbcb" fill-rule="evenodd"/><path d="M949,1200c0,2,0,4,0,6c0,12,8,21,19,21c10,0,19-9,19-21c0-2-1-4-1-6-3,8-10,14-18,14-9,0-16-6-19-14Z" clip-rule="evenodd" fill="#cacbcb" fill-rule="evenodd"/><path d="M929,1231c-1,2-1,5-1,7c0,11,9,20,19,20c11,0,19-9,19-20c0-2,0-5-1-7-2,9-9,15-18,15-8,0-16-6-18-15Z" clip-rule="evenodd" fill="#cacbcb" fill-rule="evenodd"/><path d="M888,1231c0,2-1,5-1,7c0,11,9,20,19,20c11,0,19-9,19-20c0-2,0-5-1-7-2,9-9,15-18,15-8,0-15-6-18-15Z" clip-rule="evenodd" fill="#cacbcb" fill-rule="evenodd"/><path d="M945,1261c0,2,1,4,1,7c0,11-9,20-19,20-11,0-19-9-19-20c0-3,0-5,0-7c3,9,10,15,19,15c8,0,15-6,18-15Z" clip-rule="evenodd" fill="#cacbcb" fill-rule="evenodd"/><path d="M374,926c25,17,41,36,47,65c2,9,3,20,2,27-14-15-25-26-45-34l-38-15c-21-9-40-23-54-41v8c0,61,26,113,88,130l41,10c18,5,36,17,47,32c7,9,11,22,14,29-10-6-20-12-32-17-8-3-17-4-27-5h-41c-18,0-35-4-50-12c5,11,11,22,17,33c20,32,57,51,95,46l27-2c20-3,41,2,58,14c11,7,19,18,26,27-22-6-41-11-65-5l-32,9c-13,3-27,4-41,3c8,9,17,18,26,26c20,17,50,21,74,11l30-12c15-7,32-7,47-2c13,5,25,14,33,21-12-1-27-1-42,4-14,4-27,13-41,22-9,5-18,9-28,11c6,3,11,7,17,10c22,11,51,10,72-5l18-12c14-9,31-13,47-10c11,2,24,8,32,11-18,3-37,6-54,23l-8,7c-8,9-17,16-27,21c4,2,9,3,13,5c20,6,43-1,57-17l11-11c10-12,26-19,42-18c10,0,20,4,26,6-13,5-29,13-37,26l-9,15c-4,5-8,11-13,15l9,1c20,2,38-9,49-25c10-17,27-32,48-29c13,2,20,13,20,26c1,16-9,37-16,51-4,9-9,17-13,26-3,6-6,13-8,19s-2,14,3,18c7,4,18-3,23-7-3,10-7,25-7,37c1,15,6,28,19,33c6-20,9-32,11-42c3-13-1-32-2-48c0-25,16-88,20-114c25,4,37,54,63,58-17,16-22,63-25,87-1,18-8,34-23,26-2,16-9,22-17,32-1,1-2,3-3,4l1,2c7,18,28,28,47,25l6-1l2,5c4,9,13,14,23,14c9,0,19-5,23-14l2-5l6,1c18,3,39-7,47-25l1-2c-1-1-2-3-3-4-8-10-15-16-17-32-16,8-22-8-24-26-2-24-7-71-25-87c18-3,32-34,31-50c0-6-5-10-11-9-10,2-21,3-31,3-45,0-80-59-80-103-53,16-143-6-190-31-82-44-130-119-146-172c21,0,47-7,47-36c0-13-14-31-40-42-118-54-188-103-214-210-20,56-15,123,31,166c12,11,26,21,40,31Z" clip-rule="evenodd" fill="#cacbcb" fill-rule="evenodd"/><path d="M1005,1232c-6,44-9,69,0,113c7,30,16,71,15,90c0,16-5,35-1,48c2,10,5,22,11,42c12-5,18-18,19-33c0-12-4-27-7-37c5,4,16,11,23,7c5-4,4-12,3-18-2-6-5-13-8-19-4-9-9-17-13-26-7-14-17-35-17-51c1-13,8-24,21-26c21-3,38,12,48,29c11,16,29,27,49,25l9-1c-5-4-10-10-13-15l-10-15c-7-13-23-21-36-26c5-2,16-6,25-6c16-1,32,6,43,18l10,11c14,16,37,23,58,17c4-2,9-3,13-5-10-5-19-12-27-21l-8-7c-17-17-37-20-54-23c7-3,21-9,31-11c17-3,34,1,48,10l18,12c20,15,49,16,72,5c5-3,11-7,17-10-10-2-20-6-28-11-14-9-27-18-42-22-14-5-29-5-41-4c8-7,20-16,33-21c15-5,32-5,47,2l29,12c25,10,54,6,75-11c9-8,18-17,26-26-14,1-28,0-42-3l-32-9c-23-6-42-1-65,5c8-9,16-20,27-27c17-12,37-17,58-14l27,2c38,5,75-14,95-46c6-11,12-22,17-33-15,8-32,12-50,12h-41c-10,1-19,2-28,5-12,5-21,11-31,17c2-7,7-20,13-29c12-15,30-27,48-32l41-10c62-17,88-69,88-130v-8c-14,18-33,32-54,41l-38,15c-20,8-31,19-45,34-1-7-1-18,1-27c7-29,23-48,48-65c14-10,28-20,40-31c46-43,51-110,30-166-26,107-96,156-214,210-25,11-40,29-40,42c1,29,26,36,48,36-16,53-64,128-146,172-43,22-138,48-192,31c0,4-1,8-1,12Z" clip-rule="evenodd" fill="#cacbcb" fill-rule="evenodd"/></g></svg>